<svg xmlns="http://www.w3.org/2000/svg" width="805" height="600"><rect width="805" height="600" x="0" y="0" fill="#FFFFFF" id="background"/><g id="viz"><g transform="translate(0,0)"><g transform="translate(10,-10)"><g><path fill="#db41e7" d="M0,273.71875C2.205056179775281,273.71875,2.205056179775281,273.71875,4.410112359550562,273.71875C6.615168539325842,273.71875,6.615168539325842,275.5625,8.820224719101123,275.5625C11.025280898876403,275.5625,11.025280898876403,271.875,13.230337078651685,271.875C15.435393258426966,271.875,15.435393258426966,275.5625,17.640449438202246,275.5625C19.84550561797753,275.5625,19.84550561797753,275.5625,22.05056179775281,275.5625C24.25561797752809,275.5625,24.25561797752809,275.5625,26.46067415730337,275.5625C28.66573033707865,275.5625,28.66573033707865,273.71875,30.870786516853933,273.71875C33.07584269662921,273.71875,33.07584269662921,273.71875,35.28089887640449,273.71875C37.485955056179776,273.71875,37.485955056179776,273.71875,39.69101123595505,273.71875C41.896067415730336,273.71875,41.896067415730336,271.875,44.10112359550562,271.875C46.306179775280896,271.875,46.306179775280896,273.71875,48.51123595505618,273.71875C50.71629213483146,273.71875,50.71629213483146,275.5625,52.92134831460674,275.5625C55.126404494382015,275.5625,55.126404494382015,271.875,57.3314606741573,271.875C59.53651685393258,271.875,59.53651685393258,273.71875,61.741573033707866,273.71875C63.94662921348314,273.71875,63.94662921348314,271.875,66.15168539325842,271.875C68.3567415730337,271.875,68.3567415730337,271.875,70.56179775280899,271.875C72.76685393258427,271.875,72.76685393258427,273.71875,74.97191011235955,273.71875C77.17696629213484,273.71875,77.17696629213484,271.875,79.3820224719101,271.875C81.58707865168539,271.875,81.58707865168539,275.5625,83.79213483146067,275.5625C85.99719101123596,275.5625,85.99719101123596,273.71875,88.20224719101124,273.71875C90.40730337078651,273.71875,90.40730337078651,271.875,92.61235955056179,271.875C94.81741573033707,271.875,94.81741573033707,270.03125,97.02247191011236,270.03125C99.22752808988764,270.03125,99.22752808988764,273.71875,101.43258426966293,273.71875C103.63764044943821,273.71875,103.63764044943821,275.5625,105.84269662921348,275.5625C108.04775280898878,275.5625,108.04775280898878,275.5625,110.25280898876406,275.5625C112.45786516853933,275.5625,112.45786516853933,277.40625,114.6629213483146,277.40625C116.86797752808988,277.40625,116.86797752808988,275.5625,119.07303370786518,275.5625C121.27808988764045,275.5625,121.27808988764045,275.5625,123.48314606741573,275.5625C125.68820224719101,275.5625,125.68820224719101,275.5625,127.8932584269663,275.5625C130.09831460674155,275.5625,130.09831460674155,275.5625,132.30337078651684,275.5625C134.50842696629212,275.5625,134.50842696629212,275.5625,136.71348314606743,275.5625C138.9185393258427,275.5625,138.9185393258427,275.5625,141.12359550561797,275.5625C143.32865168539325,275.5625,143.32865168539325,277.40625,145.53370786516854,277.40625C147.73876404494382,277.40625,147.73876404494382,279.25,149.9438202247191,279.25C152.1488764044944,279.25,152.1488764044944,275.5625,154.35393258426967,275.5625C156.55898876404495,275.5625,156.55898876404495,277.40625,158.7640449438202,277.40625C160.96910112359552,277.40625,160.96910112359552,279.25,163.1741573033708,279.25C165.3792134831461,279.25,165.3792134831461,279.25,167.58426966292134,279.25C169.78932584269663,279.25,169.78932584269663,279.25,171.9943820224719,279.25C174.1994382022472,279.25,174.1994382022472,275.5625,176.40449438202248,275.5625C178.60955056179776,275.5625,178.60955056179776,275.5625,180.81460674157304,275.5625C183.0196629213483,275.5625,183.0196629213483,277.40625,185.22471910112358,277.40625C187.42977528089887,277.40625,187.42977528089887,275.5625,189.63483146067415,275.5625C191.83988764044943,275.5625,191.83988764044943,275.5625,194.04494382022472,275.5625C196.25,275.5625,196.25,275.5625,198.45505617977528,275.5625C200.66011235955057,275.5625,200.66011235955057,273.71875,202.86516853932585,273.71875C205.07022471910113,273.71875,205.07022471910113,275.5625,207.2752808988764,275.5625C209.48033707865167,275.5625,209.48033707865167,275.5625,211.68539325842696,275.5625C213.89044943820224,275.5625,213.89044943820224,273.71875,216.09550561797752,273.71875C218.30056179775283,273.71875,218.30056179775283,275.5625,220.50561797752812,275.5625C222.71067415730337,275.5625,222.71067415730337,275.5625,224.91573033707863,275.5625C227.1207865168539,275.5625,227.1207865168539,275.5625,229.3258426966292,275.5625C231.53089887640448,275.5625,231.53089887640448,279.25,233.7359550561798,279.25C235.94101123595507,279.25,235.94101123595507,275.5625,238.14606741573036,275.5625C240.3511235955056,275.5625,240.3511235955056,271.875,242.55617977528087,271.875C244.76123595505618,271.875,244.76123595505618,268.1875,246.96629213483146,268.1875C249.17134831460675,268.1875,249.17134831460675,271.875,251.37640449438203,271.875C253.5814606741573,271.875,253.5814606741573,268.1875,255.7865168539326,268.1875C257.9915730337078,268.1875,257.9915730337078,268.1875,260.1966292134831,268.1875C262.4016853932584,268.1875,262.4016853932584,266.34375,264.6067415730337,266.34375C266.81179775280896,266.34375,266.81179775280896,266.34375,269.0168539325843,266.34375C271.2219101123596,266.34375,271.2219101123596,266.34375,273.42696629213486,266.34375C275.6320224719101,266.34375,275.6320224719101,260.8125,277.8370786516854,260.8125C280.04213483146066,260.8125,280.04213483146066,260.8125,282.24719101123594,260.8125C284.4522471910112,260.8125,284.4522471910112,262.65625,286.6573033707865,262.65625C288.8623595505618,262.65625,288.8623595505618,262.65625,291.0674157303371,262.65625C293.27247191011236,262.65625,293.27247191011236,260.8125,295.47752808988764,260.8125C297.6825842696629,260.8125,297.6825842696629,257.125,299.8876404494382,257.125C302.0926966292135,257.125,302.0926966292135,255.28125,304.2977528089888,255.28125C306.50280898876406,255.28125,306.50280898876406,251.59375,308.70786516853934,251.59375C310.9129213483146,251.59375,310.9129213483146,295,313.11797752808985,295C315.32303370786514,295,315.32303370786514,296.84375,317.5280898876404,296.84375C319.7331460674157,296.84375,319.7331460674157,183.375,321.938202247191,183.375C324.1432584269663,183.375,324.1432584269663,159.40625,326.3483146067416,159.40625C328.5533707865169,159.40625,328.5533707865169,295,330.7584269662921,295C332.9634831460674,295,332.9634831460674,63.53125,335.1685393258427,63.53125C337.37359550561797,63.53125,337.37359550561797,129.90625000000003,339.57865168539325,129.90625000000003C341.78370786516854,129.90625000000003,341.78370786516854,148.34375000000003,343.9887640449438,148.34375000000003C346.1938202247191,148.34375000000003,346.1938202247191,32.187500000000014,348.3988764044944,32.187500000000014C350.60393258426967,32.187500000000014,350.60393258426967,300.53125,352.80898876404495,300.53125C355.01404494382024,300.53125,355.01404494382024,296.84375,357.2191011235955,296.84375C359.4241573033708,296.84375,359.4241573033708,122.53124999999999,361.6292134831461,122.53124999999999C363.8342696629213,122.53124999999999,363.8342696629213,116.99999999999997,366.0393258426966,116.99999999999997C368.2443820224719,116.99999999999997,368.2443820224719,140.96875,370.44943820224717,140.96875C372.65449438202245,140.96875,372.65449438202245,146.5,374.85955056179773,146.5C377.064606741573,146.5,377.064606741573,131.75,379.2696629213483,131.75C381.4747191011236,131.75,381.4747191011236,157.56250000000003,383.67977528089887,157.56250000000003C385.88483146067415,157.56250000000003,385.88483146067415,155.71875,388.08988764044943,155.71875C390.2949438202247,155.71875,390.2949438202247,177.84375,392.5,177.84375C394.7050561797753,177.84375,394.7050561797753,179.6875,396.91011235955057,179.6875C399.11516853932585,179.6875,399.11516853932585,172.31249999999997,401.32022471910113,172.31249999999997C403.5252808988764,172.31249999999997,403.5252808988764,181.53124999999997,405.7303370786517,181.53124999999997C407.935393258427,181.53124999999997,407.935393258427,196.28125,410.14044943820227,196.28125C412.34550561797755,196.28125,412.34550561797755,201.8125,414.5505617977528,201.8125C416.75561797752806,201.8125,416.75561797752806,212.87500000000003,418.96067415730334,212.87500000000003C421.1657303370786,212.87500000000003,421.1657303370786,207.34375,423.3707865168539,207.34375C425.5758426966292,207.34375,425.5758426966292,199.96874999999997,427.7808988764045,199.96874999999997C429.98595505617976,199.96874999999997,429.98595505617976,201.8125,432.19101123595505,201.8125C434.39606741573033,201.8125,434.39606741573033,205.5,436.6011235955056,205.5C438.80617977528095,205.5,438.80617977528095,209.18749999999997,441.01123595505624,209.18749999999997C443.2162921348315,209.18749999999997,443.2162921348315,203.65625000000003,445.4213483146068,203.65625000000003C447.62640449438203,203.65625000000003,447.62640449438203,203.65625000000003,449.83146067415726,203.65625000000003C452.03651685393254,203.65625000000003,452.03651685393254,199.96874999999997,454.2415730337078,199.96874999999997C456.4466292134831,199.96874999999997,456.4466292134831,205.5,458.6516853932584,205.5C460.8567415730337,205.5,460.8567415730337,199.96874999999997,463.061797752809,199.96874999999997C465.2668539325843,199.96874999999997,465.2668539325843,181.53124999999997,467.4719101123596,181.53124999999997C469.67696629213486,181.53124999999997,469.67696629213486,188.90625,471.88202247191015,188.90625C474.08707865168543,188.90625,474.08707865168543,199.96874999999997,476.2921348314607,199.96874999999997C478.497191011236,199.96874999999997,478.497191011236,190.74999999999997,480.7022471910113,190.74999999999997C482.9073033707865,190.74999999999997,482.9073033707865,196.28125,485.11235955056173,196.28125C487.3174157303371,196.28125,487.3174157303371,194.43750000000003,489.52247191011236,194.43750000000003C491.72752808988764,194.43750000000003,491.72752808988764,199.96874999999997,493.9325842696629,199.96874999999997C496.1376404494382,199.96874999999997,496.1376404494382,198.125,498.3426966292135,198.125C500.5477528089888,198.125,500.5477528089888,201.8125,502.75280898876406,201.8125C504.95786516853934,201.8125,504.95786516853934,207.34375,507.1629213483146,207.34375C509.3679775280899,207.34375,509.3679775280899,212.87500000000003,511.5730337078652,212.87500000000003C513.7780898876405,212.87500000000003,513.7780898876405,209.18749999999997,515.9831460674158,209.18749999999997C518.1882022471909,209.18749999999997,518.1882022471909,227.62499999999997,520.3932584269662,227.62499999999997C522.5983146067415,227.62499999999997,522.5983146067415,218.40624999999997,524.8033707865168,218.40624999999997C527.0084269662921,218.40624999999997,527.0084269662921,222.09375000000003,529.2134831460673,222.09375000000003C531.4185393258426,222.09375000000003,531.4185393258426,211.03125,533.623595505618,211.03125C535.8286516853933,211.03125,535.8286516853933,220.25,538.0337078651686,220.25C540.2387640449439,220.25,540.2387640449439,222.09375000000003,542.4438202247192,222.09375000000003C544.6488764044944,222.09375000000003,544.6488764044944,233.15625,546.8539325842697,233.15625C549.058988764045,233.15625,549.058988764045,212.87500000000003,551.2640449438203,212.87500000000003C553.4691011235955,212.87500000000003,553.4691011235955,223.9375,555.6741573033707,223.9375C557.879213483146,223.9375,557.879213483146,222.09375000000003,560.0842696629213,222.09375000000003C562.2893258426966,222.09375000000003,562.2893258426966,231.31250000000003,564.4943820224719,231.31250000000003C566.6994382022472,231.31250000000003,566.6994382022472,233.15625,568.9044943820224,233.15625C571.1095505617977,233.15625,571.1095505617977,231.31250000000003,573.314606741573,231.31250000000003C575.5196629213483,231.31250000000003,575.5196629213483,242.375,577.7247191011236,242.375C579.9297752808989,242.375,579.9297752808989,235,582.1348314606741,235C584.3398876404494,235,584.3398876404494,246.06249999999997,586.5449438202247,246.06249999999997C588.75,246.06249999999997,588.75,235,590.9550561797753,235C593.1601123595506,235,593.1601123595506,236.84374999999997,595.3651685393259,236.84374999999997C597.5702247191011,236.84374999999997,597.5702247191011,242.375,599.7752808988764,242.375C601.9803370786517,242.375,601.9803370786517,240.53125000000003,604.185393258427,240.53125000000003C606.3904494382023,240.53125000000003,606.3904494382023,242.375,608.5955056179776,242.375C610.8005617977528,242.375,610.8005617977528,240.53125000000003,613.0056179775281,240.53125000000003C615.2106741573034,240.53125000000003,615.2106741573034,240.53125000000003,617.4157303370787,240.53125000000003C619.620786516854,240.53125000000003,619.620786516854,240.53125000000003,621.8258426966293,240.53125000000003C624.0308988764045,240.53125000000003,624.0308988764045,240.53125000000003,626.2359550561797,240.53125000000003C628.441011235955,240.53125000000003,628.441011235955,238.6875,630.6460674157303,238.6875C632.8511235955056,238.6875,632.8511235955056,235,635.0561797752808,235C637.2612359550561,235,637.2612359550561,233.15625,639.4662921348314,233.15625C641.6713483146067,233.15625,641.6713483146067,240.53125000000003,643.876404494382,240.53125000000003C646.0814606741574,240.53125000000003,646.0814606741574,231.31250000000003,648.2865168539327,231.31250000000003C650.4915730337079,231.31250000000003,650.4915730337079,227.62499999999997,652.6966292134832,227.62499999999997C654.9016853932585,227.62499999999997,654.9016853932585,227.62499999999997,657.1067415730338,227.62499999999997C659.3117977528091,227.62499999999997,659.3117977528091,229.46875,661.5168539325842,229.46875C663.7219101123595,229.46875,663.7219101123595,231.31250000000003,665.9269662921348,231.31250000000003C668.1320224719101,231.31250000000003,668.1320224719101,229.46875,670.3370786516854,229.46875C672.5421348314607,229.46875,672.5421348314607,233.15625,674.7471910112359,233.15625C676.9522471910112,233.15625,676.9522471910112,227.62499999999997,679.1573033707865,227.62499999999997C681.3623595505618,227.62499999999997,681.3623595505618,229.46875,683.5674157303371,229.46875C685.7724719101124,229.46875,685.7724719101124,231.31250000000003,687.9775280898876,231.31250000000003C690.1825842696629,231.31250000000003,690.1825842696629,233.15625,692.3876404494382,233.15625C694.5926966292135,233.15625,694.5926966292135,235,696.7977528089888,235C699.0028089887641,235,699.0028089887641,236.84374999999997,701.2078651685393,236.84374999999997C703.4129213483146,236.84374999999997,703.4129213483146,236.84374999999997,705.6179775280899,236.84374999999997C707.8230337078652,236.84374999999997,707.8230337078652,238.6875,710.0280898876405,238.6875C712.2331460674158,238.6875,712.2331460674158,238.6875,714.438202247191,238.6875C716.6432584269663,238.6875,716.6432584269663,236.84374999999997,718.8483146067416,236.84374999999997C721.0533707865169,236.84374999999997,721.0533707865169,240.53125000000003,723.2584269662922,240.53125000000003C725.4634831460675,240.53125000000003,725.4634831460675,236.84374999999997,727.6685393258427,236.84374999999997C729.8735955056179,236.84374999999997,729.8735955056179,236.84374999999997,732.0786516853932,236.84374999999997C734.2837078651685,236.84374999999997,734.2837078651685,233.15625,736.4887640449438,233.15625C738.693820224719,233.15625,738.693820224719,238.6875,740.8988764044943,238.6875C743.1039325842696,238.6875,743.1039325842696,236.84374999999997,745.3089887640449,236.84374999999997C747.5140449438202,236.84374999999997,747.5140449438202,236.84374999999997,749.7191011235955,236.84374999999997C751.9241573033707,236.84374999999997,751.9241573033707,240.53125000000003,754.129213483146,240.53125000000003C756.3342696629213,240.53125000000003,756.3342696629213,238.6875,758.5393258426966,238.6875C760.7443820224719,238.6875,760.7443820224719,236.84374999999997,762.9494382022473,236.84374999999997C765.1544943820224,236.84374999999997,765.1544943820224,240.53125000000003,767.3595505617977,240.53125000000003C769.564606741573,240.53125000000003,769.564606741573,240.53125000000003,771.7696629213483,240.53125000000003C773.9747191011236,240.53125000000003,773.9747191011236,240.53125000000003,776.1797752808989,240.53125000000003C778.3848314606741,240.53125000000003,778.3848314606741,242.375,780.5898876404494,242.375C782.7949438202247,242.375,782.7949438202247,242.375,785,242.375L785,316.125C782.7949438202247,316.125,782.7949438202247,316.125,780.5898876404494,316.125C778.3848314606741,316.125,778.3848314606741,317.96875,776.1797752808989,317.96875C773.9747191011236,317.96875,773.9747191011236,317.96875,771.7696629213483,317.96875C769.564606741573,317.96875,769.564606741573,314.28125,767.3595505617977,314.28125C765.1544943820224,314.28125,765.1544943820224,314.28125,762.9494382022473,314.28125C760.7443820224719,314.28125,760.7443820224719,316.125,758.5393258426966,316.125C756.3342696629213,316.125,756.3342696629213,314.28125,754.129213483146,314.28125C751.9241573033707,314.28125,751.9241573033707,317.96875,749.7191011235955,317.96875C747.5140449438202,317.96875,747.5140449438202,314.28125,745.3089887640449,314.28125C743.1039325842696,314.28125,743.1039325842696,316.125,740.8988764044943,316.125C738.693820224719,316.125,738.693820224719,321.65625,736.4887640449438,321.65625C734.2837078651685,321.65625,734.2837078651685,317.96875,732.0786516853932,317.96875C729.8735955056179,317.96875,729.8735955056179,317.96875,727.6685393258427,317.96875C725.4634831460675,317.96875,725.4634831460675,314.28125,723.2584269662922,314.28125C721.0533707865169,314.28125,721.0533707865169,314.28125,718.8483146067416,314.28125C716.6432584269663,314.28125,716.6432584269663,312.4375,714.438202247191,312.4375C712.2331460674158,312.4375,712.2331460674158,316.125,710.0280898876405,316.125C707.8230337078652,316.125,707.8230337078652,314.28125,705.6179775280899,314.28125C703.4129213483146,314.28125,703.4129213483146,314.28125,701.2078651685393,314.28125C699.0028089887641,314.28125,699.0028089887641,316.125,696.7977528089888,316.125C694.5926966292135,316.125,694.5926966292135,314.28125,692.3876404494382,314.28125C690.1825842696629,314.28125,690.1825842696629,319.8125,687.9775280898876,319.8125C685.7724719101124,319.8125,685.7724719101124,317.96875,683.5674157303371,317.96875C681.3623595505618,317.96875,681.3623595505618,319.8125,679.1573033707865,319.8125C676.9522471910112,319.8125,676.9522471910112,314.28125,674.7471910112359,314.28125C672.5421348314607,314.28125,672.5421348314607,317.96875,670.3370786516854,317.96875C668.1320224719101,317.96875,668.1320224719101,316.125,665.9269662921348,316.125C663.7219101123595,316.125,663.7219101123595,317.96875,661.5168539325842,317.96875C659.3117977528091,317.96875,659.3117977528091,316.125,657.1067415730338,316.125C654.9016853932585,316.125,654.9016853932585,316.125,652.6966292134832,316.125C650.4915730337079,316.125,650.4915730337079,316.125,648.2865168539327,316.125C646.0814606741574,316.125,646.0814606741574,310.59375,643.876404494382,310.59375C641.6713483146067,310.59375,641.6713483146067,314.28125,639.4662921348314,314.28125C637.2612359550561,314.28125,637.2612359550561,312.4375,635.0561797752808,312.4375C632.8511235955056,312.4375,632.8511235955056,312.4375,630.6460674157303,312.4375C628.441011235955,312.4375,628.441011235955,310.59375,626.2359550561797,310.59375C624.0308988764045,310.59375,624.0308988764045,314.28125,621.8258426966293,314.28125C619.620786516854,314.28125,619.620786516854,306.90625,617.4157303370787,306.90625C615.2106741573034,306.90625,615.2106741573034,306.90625,613.0056179775281,306.90625C610.8005617977528,306.90625,610.8005617977528,308.75,608.5955056179776,308.75C606.3904494382023,308.75,606.3904494382023,310.59375,604.185393258427,310.59375C601.9803370786517,310.59375,601.9803370786517,312.4375,599.7752808988764,312.4375C597.5702247191011,312.4375,597.5702247191011,314.28125,595.3651685393259,314.28125C593.1601123595506,314.28125,593.1601123595506,308.75,590.9550561797753,308.75C588.75,308.75,588.75,308.75,586.5449438202247,308.75C584.3398876404494,308.75,584.3398876404494,312.4375,582.1348314606741,312.4375C579.9297752808989,312.4375,579.9297752808989,316.125,577.7247191011236,316.125C575.5196629213483,316.125,575.5196629213483,316.125,573.314606741573,316.125C571.1095505617977,316.125,571.1095505617977,321.65625,568.9044943820224,321.65625C566.6994382022472,321.65625,566.6994382022472,319.8125,564.4943820224719,319.8125C562.2893258426966,319.8125,562.2893258426966,314.28125,560.0842696629213,314.28125C557.879213483146,314.28125,557.879213483146,319.8125,555.6741573033707,319.8125C553.4691011235955,319.8125,553.4691011235955,323.5,551.2640449438203,323.5C549.058988764045,323.5,549.058988764045,321.65625,546.8539325842697,321.65625C544.6488764044944,321.65625,544.6488764044944,321.65625,542.4438202247192,321.65625C540.2387640449439,321.65625,540.2387640449439,316.125,538.0337078651686,316.125C535.8286516853933,316.125,535.8286516853933,332.71875,533.623595505618,332.71875C531.4185393258426,332.71875,531.4185393258426,321.65625,529.2134831460673,321.65625C527.0084269662921,321.65625,527.0084269662921,329.03125,524.8033707865168,329.03125C522.5983146067415,329.03125,522.5983146067415,323.5,520.3932584269662,323.5C518.1882022471909,323.5,518.1882022471909,334.5625,515.9831460674158,334.5625C513.7780898876405,334.5625,513.7780898876405,330.875,511.5730337078652,330.875C509.3679775280899,330.875,509.3679775280899,329.03125,507.1629213483146,329.03125C504.95786516853934,329.03125,504.95786516853934,330.875,502.75280898876406,330.875C500.5477528089888,330.875,500.5477528089888,330.875,498.3426966292135,330.875C496.1376404494382,330.875,496.1376404494382,329.03125,493.9325842696629,329.03125C491.72752808988764,329.03125,491.72752808988764,330.875,489.52247191011236,330.875C487.3174157303371,330.875,487.3174157303371,340.09375,485.11235955056173,340.09375C482.9073033707865,340.09375,482.9073033707865,338.25,480.7022471910113,338.25C478.497191011236,338.25,478.497191011236,329.03125,476.2921348314607,329.03125C474.08707865168543,329.03125,474.08707865168543,340.09375,471.88202247191015,340.09375C469.67696629213486,340.09375,469.67696629213486,347.46875,467.4719101123596,347.46875C465.2668539325843,347.46875,465.2668539325843,332.71875,463.061797752809,332.71875C460.8567415730337,332.71875,460.8567415730337,316.125,458.6516853932584,316.125C456.4466292134831,316.125,456.4466292134831,317.96875,454.2415730337078,317.96875C452.03651685393254,317.96875,452.03651685393254,314.28125,449.83146067415726,314.28125C447.62640449438203,314.28125,447.62640449438203,314.28125,445.4213483146068,314.28125C443.2162921348315,314.28125,443.2162921348315,305.0625,441.01123595505624,305.0625C438.80617977528095,305.0625,438.80617977528095,308.75,436.6011235955056,308.75C434.39606741573033,308.75,434.39606741573033,305.0625,432.19101123595505,305.0625C429.98595505617976,305.0625,429.98595505617976,306.90625,427.7808988764045,306.90625C425.5758426966292,306.90625,425.5758426966292,306.90625,423.3707865168539,306.90625C421.1657303370786,306.90625,421.1657303370786,305.0625,418.96067415730334,305.0625C416.75561797752806,305.0625,416.75561797752806,301.375,414.5505617977528,301.375C412.34550561797755,301.375,412.34550561797755,306.90625,410.14044943820227,306.90625C407.935393258427,306.90625,407.935393258427,306.90625,405.7303370786517,306.90625C403.5252808988764,306.90625,403.5252808988764,312.4375,401.32022471910113,312.4375C399.11516853932585,312.4375,399.11516853932585,312.4375,396.91011235955057,312.4375C394.7050561797753,312.4375,394.7050561797753,299.53125,392.5,299.53125C390.2949438202247,299.53125,390.2949438202247,299.53125,388.08988764044943,299.53125C385.88483146067415,299.53125,385.88483146067415,305.0625,383.67977528089887,305.0625C381.4747191011236,305.0625,381.4747191011236,316.125,379.2696629213483,316.125C377.064606741573,316.125,377.064606741573,297.6875,374.85955056179773,297.6875C372.65449438202245,297.6875,372.65449438202245,295.84375,370.44943820224717,295.84375C368.2443820224719,295.84375,368.2443820224719,334.5625,366.0393258426966,334.5625C363.8342696629213,334.5625,363.8342696629213,314.28125,361.6292134831461,314.28125C359.4241573033708,314.28125,359.4241573033708,448.03125,357.2191011235955,448.03125C355.01404494382024,448.03125,355.01404494382024,477.53125,352.80898876404495,477.53125C350.60393258426967,477.53125,350.60393258426967,400.9375,348.3988764044944,400.9375C346.1938202247191,400.9375,346.1938202247191,303.21875,343.9887640449438,303.21875C341.78370786516854,303.21875,341.78370786516854,321.65625,339.57865168539325,321.65625C337.37359550561797,321.65625,337.37359550561797,317.96875,335.1685393258427,317.96875C332.9634831460674,317.96875,332.9634831460674,420.375,330.7584269662921,420.375C328.5533707865169,420.375,328.5533707865169,340.09375,326.3483146067416,340.09375C324.1432584269663,340.09375,324.1432584269663,301.375,321.938202247191,301.375C319.7331460674157,301.375,319.7331460674157,363.21875,317.5280898876404,363.21875C315.32303370786514,363.21875,315.32303370786514,346.625,313.11797752808985,346.625C310.9129213483146,346.625,310.9129213483146,299.53125,308.70786516853934,299.53125C306.50280898876406,299.53125,306.50280898876406,299.53125,304.2977528089888,299.53125C302.0926966292135,299.53125,302.0926966292135,301.375,299.8876404494382,301.375C297.6825842696629,301.375,297.6825842696629,297.6875,295.47752808988764,297.6875C293.27247191011236,297.6875,293.27247191011236,299.53125,291.0674157303371,299.53125C288.8623595505618,299.53125,288.8623595505618,299.53125,286.6573033707865,299.53125C284.4522471910112,299.53125,284.4522471910112,297.6875,282.24719101123594,297.6875C280.04213483146066,297.6875,280.04213483146066,297.6875,277.8370786516854,297.6875C275.6320224719101,297.6875,275.6320224719101,299.53125,273.42696629213486,299.53125C271.2219101123596,299.53125,271.2219101123596,299.53125,269.0168539325843,299.53125C266.81179775280896,299.53125,266.81179775280896,299.53125,264.6067415730337,299.53125C262.4016853932584,299.53125,262.4016853932584,297.6875,260.1966292134831,297.6875C257.9915730337078,297.6875,257.9915730337078,297.6875,255.7865168539326,297.6875C253.5814606741573,297.6875,253.5814606741573,297.6875,251.37640449438203,297.6875C249.17134831460675,297.6875,249.17134831460675,297.6875,246.96629213483146,297.6875C244.76123595505618,297.6875,244.76123595505618,297.6875,242.55617977528087,297.6875C240.3511235955056,297.6875,240.3511235955056,297.6875,238.14606741573036,297.6875C235.94101123595507,297.6875,235.94101123595507,297.6875,233.7359550561798,297.6875C231.53089887640448,297.6875,231.53089887640448,297.6875,229.3258426966292,297.6875C227.1207865168539,297.6875,227.1207865168539,297.6875,224.91573033707863,297.6875C222.71067415730337,297.6875,222.71067415730337,297.6875,220.50561797752812,297.6875C218.30056179775283,297.6875,218.30056179775283,295.84375,216.09550561797752,295.84375C213.89044943820224,295.84375,213.89044943820224,297.6875,211.68539325842696,297.6875C209.48033707865167,297.6875,209.48033707865167,297.6875,207.2752808988764,297.6875C205.07022471910113,297.6875,205.07022471910113,295.84375,202.86516853932585,295.84375C200.66011235955057,295.84375,200.66011235955057,297.6875,198.45505617977528,297.6875C196.25,297.6875,196.25,297.6875,194.04494382022472,297.6875C191.83988764044943,297.6875,191.83988764044943,297.6875,189.63483146067415,297.6875C187.42977528089887,297.6875,187.42977528089887,295.84375,185.22471910112358,295.84375C183.0196629213483,295.84375,183.0196629213483,297.6875,180.81460674157304,297.6875C178.60955056179776,297.6875,178.60955056179776,297.6875,176.40449438202248,297.6875C174.1994382022472,297.6875,174.1994382022472,297.6875,171.9943820224719,297.6875C169.78932584269663,297.6875,169.78932584269663,297.6875,167.58426966292134,297.6875C165.3792134831461,297.6875,165.3792134831461,297.6875,163.1741573033708,297.6875C160.96910112359552,297.6875,160.96910112359552,299.53125,158.7640449438202,299.53125C156.55898876404495,299.53125,156.55898876404495,297.6875,154.35393258426967,297.6875C152.1488764044944,297.6875,152.1488764044944,297.6875,149.9438202247191,297.6875C147.73876404494382,297.6875,147.73876404494382,295.84375,145.53370786516854,295.84375C143.32865168539325,295.84375,143.32865168539325,297.6875,141.12359550561797,297.6875C138.9185393258427,297.6875,138.9185393258427,297.6875,136.71348314606743,297.6875C134.50842696629212,297.6875,134.50842696629212,297.6875,132.30337078651684,297.6875C130.09831460674155,297.6875,130.09831460674155,297.6875,127.8932584269663,297.6875C125.68820224719101,297.6875,125.68820224719101,297.6875,123.48314606741573,297.6875C121.27808988764045,297.6875,121.27808988764045,297.6875,119.07303370786518,297.6875C116.86797752808988,297.6875,116.86797752808988,295.84375,114.6629213483146,295.84375C112.45786516853933,295.84375,112.45786516853933,297.6875,110.25280898876406,297.6875C108.04775280898878,297.6875,108.04775280898878,297.6875,105.84269662921348,297.6875C103.63764044943821,297.6875,103.63764044943821,299.53125,101.43258426966293,299.53125C99.22752808988764,299.53125,99.22752808988764,299.53125,97.02247191011236,299.53125C94.81741573033707,299.53125,94.81741573033707,297.6875,92.61235955056179,297.6875C90.40730337078651,297.6875,90.40730337078651,299.53125,88.20224719101124,299.53125C85.99719101123596,299.53125,85.99719101123596,297.6875,83.79213483146067,297.6875C81.58707865168539,297.6875,81.58707865168539,297.6875,79.3820224719101,297.6875C77.17696629213484,297.6875,77.17696629213484,299.53125,74.97191011235955,299.53125C72.76685393258427,299.53125,72.76685393258427,301.375,70.56179775280899,301.375C68.3567415730337,301.375,68.3567415730337,301.375,66.15168539325842,301.375C63.94662921348314,301.375,63.94662921348314,299.53125,61.741573033707866,299.53125C59.53651685393258,299.53125,59.53651685393258,297.6875,57.3314606741573,297.6875C55.126404494382015,297.6875,55.126404494382015,297.6875,52.92134831460674,297.6875C50.71629213483146,297.6875,50.71629213483146,299.53125,48.51123595505618,299.53125C46.306179775280896,299.53125,46.306179775280896,297.6875,44.10112359550562,297.6875C41.896067415730336,297.6875,41.896067415730336,295.84375,39.69101123595505,295.84375C37.485955056179776,295.84375,37.485955056179776,299.53125,35.28089887640449,299.53125C33.07584269662921,299.53125,33.07584269662921,299.53125,30.870786516853933,299.53125C28.66573033707865,299.53125,28.66573033707865,297.6875,26.46067415730337,297.6875C24.25561797752809,297.6875,24.25561797752809,297.6875,22.05056179775281,297.6875C19.84550561797753,297.6875,19.84550561797753,297.6875,17.640449438202246,297.6875C15.435393258426966,297.6875,15.435393258426966,297.6875,13.230337078651685,297.6875C11.025280898876403,297.6875,11.025280898876403,297.6875,8.820224719101123,297.6875C6.615168539325842,297.6875,6.615168539325842,299.53125,4.410112359550562,299.53125C2.205056179775281,299.53125,2.205056179775281,299.53125,0,299.53125Z"><title>Javier Milei</title></path><path fill="#249feb" d="M0,300.53125C2.205056179775281,300.53125,2.205056179775281,300.53125,4.410112359550562,300.53125C6.615168539325842,300.53125,6.615168539325842,298.6875,8.820224719101123,298.6875C11.025280898876403,298.6875,11.025280898876403,298.6875,13.230337078651685,298.6875C15.435393258426966,298.6875,15.435393258426966,298.6875,17.640449438202246,298.6875C19.84550561797753,298.6875,19.84550561797753,298.6875,22.05056179775281,298.6875C24.25561797752809,298.6875,24.25561797752809,298.6875,26.46067415730337,298.6875C28.66573033707865,298.6875,28.66573033707865,300.53125,30.870786516853933,300.53125C33.07584269662921,300.53125,33.07584269662921,300.53125,35.28089887640449,300.53125C37.485955056179776,300.53125,37.485955056179776,296.84375,39.69101123595505,296.84375C41.896067415730336,296.84375,41.896067415730336,298.6875,44.10112359550562,298.6875C46.306179775280896,298.6875,46.306179775280896,300.53125,48.51123595505618,300.53125C50.71629213483146,300.53125,50.71629213483146,298.6875,52.92134831460674,298.6875C55.126404494382015,298.6875,55.126404494382015,298.6875,57.3314606741573,298.6875C59.53651685393258,298.6875,59.53651685393258,300.53125,61.741573033707866,300.53125C63.94662921348314,300.53125,63.94662921348314,302.375,66.15168539325842,302.375C68.3567415730337,302.375,68.3567415730337,302.375,70.56179775280899,302.375C72.76685393258427,302.375,72.76685393258427,300.53125,74.97191011235955,300.53125C77.17696629213484,300.53125,77.17696629213484,298.6875,79.3820224719101,298.6875C81.58707865168539,298.6875,81.58707865168539,298.6875,83.79213483146067,298.6875C85.99719101123596,298.6875,85.99719101123596,300.53125,88.20224719101124,300.53125C90.40730337078651,300.53125,90.40730337078651,298.6875,92.61235955056179,298.6875C94.81741573033707,298.6875,94.81741573033707,300.53125,97.02247191011236,300.53125C99.22752808988764,300.53125,99.22752808988764,300.53125,101.43258426966293,300.53125C103.63764044943821,300.53125,103.63764044943821,298.6875,105.84269662921348,298.6875C108.04775280898878,298.6875,108.04775280898878,298.6875,110.25280898876406,298.6875C112.45786516853933,298.6875,112.45786516853933,296.84375,114.6629213483146,296.84375C116.86797752808988,296.84375,116.86797752808988,298.6875,119.07303370786518,298.6875C121.27808988764045,298.6875,121.27808988764045,298.6875,123.48314606741573,298.6875C125.68820224719101,298.6875,125.68820224719101,298.6875,127.8932584269663,298.6875C130.09831460674155,298.6875,130.09831460674155,298.6875,132.30337078651684,298.6875C134.50842696629212,298.6875,134.50842696629212,298.6875,136.71348314606743,298.6875C138.9185393258427,298.6875,138.9185393258427,298.6875,141.12359550561797,298.6875C143.32865168539325,298.6875,143.32865168539325,296.84375,145.53370786516854,296.84375C147.73876404494382,296.84375,147.73876404494382,298.6875,149.9438202247191,298.6875C152.1488764044944,298.6875,152.1488764044944,298.6875,154.35393258426967,298.6875C156.55898876404495,298.6875,156.55898876404495,300.53125,158.7640449438202,300.53125C160.96910112359552,300.53125,160.96910112359552,298.6875,163.1741573033708,298.6875C165.3792134831461,298.6875,165.3792134831461,298.6875,167.58426966292134,298.6875C169.78932584269663,298.6875,169.78932584269663,298.6875,171.9943820224719,298.6875C174.1994382022472,298.6875,174.1994382022472,298.6875,176.40449438202248,298.6875C178.60955056179776,298.6875,178.60955056179776,298.6875,180.81460674157304,298.6875C183.0196629213483,298.6875,183.0196629213483,296.84375,185.22471910112358,296.84375C187.42977528089887,296.84375,187.42977528089887,298.6875,189.63483146067415,298.6875C191.83988764044943,298.6875,191.83988764044943,298.6875,194.04494382022472,298.6875C196.25,298.6875,196.25,298.6875,198.45505617977528,298.6875C200.66011235955057,298.6875,200.66011235955057,296.84375,202.86516853932585,296.84375C205.07022471910113,296.84375,205.07022471910113,298.6875,207.2752808988764,298.6875C209.48033707865167,298.6875,209.48033707865167,298.6875,211.68539325842696,298.6875C213.89044943820224,298.6875,213.89044943820224,296.84375,216.09550561797752,296.84375C218.30056179775283,296.84375,218.30056179775283,298.6875,220.50561797752812,298.6875C222.71067415730337,298.6875,222.71067415730337,298.6875,224.91573033707863,298.6875C227.1207865168539,298.6875,227.1207865168539,298.6875,229.3258426966292,298.6875C231.53089887640448,298.6875,231.53089887640448,298.6875,233.7359550561798,298.6875C235.94101123595507,298.6875,235.94101123595507,298.6875,238.14606741573036,298.6875C240.3511235955056,298.6875,240.3511235955056,298.6875,242.55617977528087,298.6875C244.76123595505618,298.6875,244.76123595505618,298.6875,246.96629213483146,298.6875C249.17134831460675,298.6875,249.17134831460675,298.6875,251.37640449438203,298.6875C253.5814606741573,298.6875,253.5814606741573,298.6875,255.7865168539326,298.6875C257.9915730337078,298.6875,257.9915730337078,298.6875,260.1966292134831,298.6875C262.4016853932584,298.6875,262.4016853932584,300.53125,264.6067415730337,300.53125C266.81179775280896,300.53125,266.81179775280896,300.53125,269.0168539325843,300.53125C271.2219101123596,300.53125,271.2219101123596,300.53125,273.42696629213486,300.53125C275.6320224719101,300.53125,275.6320224719101,298.6875,277.8370786516854,298.6875C280.04213483146066,298.6875,280.04213483146066,298.6875,282.24719101123594,298.6875C284.4522471910112,298.6875,284.4522471910112,300.53125,286.6573033707865,300.53125C288.8623595505618,300.53125,288.8623595505618,300.53125,291.0674157303371,300.53125C293.27247191011236,300.53125,293.27247191011236,298.6875,295.47752808988764,298.6875C297.6825842696629,298.6875,297.6825842696629,302.375,299.8876404494382,302.375C302.0926966292135,302.375,302.0926966292135,300.53125,304.2977528089888,300.53125C306.50280898876406,300.53125,306.50280898876406,300.53125,308.70786516853934,300.53125C310.9129213483146,300.53125,310.9129213483146,242.375,313.11797752808985,242.375C315.32303370786514,242.375,315.32303370786514,225.78125,317.5280898876404,225.78125C319.7331460674157,225.78125,319.7331460674157,302.375,321.938202247191,302.375C324.1432584269663,302.375,324.1432584269663,341.09375,326.3483146067416,341.09375C328.5533707865169,341.09375,328.5533707865169,168.625,330.7584269662921,168.625C332.9634831460674,168.625,332.9634831460674,318.96875,335.1685393258427,318.96875C337.37359550561797,318.96875,337.37359550561797,322.65625,339.57865168539325,322.65625C341.78370786516854,322.65625,341.78370786516854,304.21875,343.9887640449438,304.21875C346.1938202247191,304.21875,346.1938202247191,401.9375,348.3988764044944,401.9375C350.60393258426967,401.9375,350.60393258426967,111.46875000000003,352.80898876404495,111.46875000000003C355.01404494382024,111.46875000000003,355.01404494382024,140.96875,357.2191011235955,140.96875C359.4241573033708,140.96875,359.4241573033708,315.28125,361.6292134831461,315.28125C363.8342696629213,315.28125,363.8342696629213,335.5625,366.0393258426966,335.5625C368.2443820224719,335.5625,368.2443820224719,296.84375,370.44943820224717,296.84375C372.65449438202245,296.84375,372.65449438202245,298.6875,374.85955056179773,298.6875C377.064606741573,298.6875,377.064606741573,317.125,379.2696629213483,317.125C381.4747191011236,317.125,381.4747191011236,306.0625,383.67977528089887,306.0625C385.88483146067415,306.0625,385.88483146067415,300.53125,388.08988764044943,300.53125C390.2949438202247,300.53125,390.2949438202247,300.53125,392.5,300.53125C394.7050561797753,300.53125,394.7050561797753,313.4375,396.91011235955057,313.4375C399.11516853932585,313.4375,399.11516853932585,313.4375,401.32022471910113,313.4375C403.5252808988764,313.4375,403.5252808988764,307.90625,405.7303370786517,307.90625C407.935393258427,307.90625,407.935393258427,307.90625,410.14044943820227,307.90625C412.34550561797755,307.90625,412.34550561797755,302.375,414.5505617977528,302.375C416.75561797752806,302.375,416.75561797752806,306.0625,418.96067415730334,306.0625C421.1657303370786,306.0625,421.1657303370786,307.90625,423.3707865168539,307.90625C425.5758426966292,307.90625,425.5758426966292,307.90625,427.7808988764045,307.90625C429.98595505617976,307.90625,429.98595505617976,306.0625,432.19101123595505,306.0625C434.39606741573033,306.0625,434.39606741573033,309.75,436.6011235955056,309.75C438.80617977528095,309.75,438.80617977528095,306.0625,441.01123595505624,306.0625C443.2162921348315,306.0625,443.2162921348315,315.28125,445.4213483146068,315.28125C447.62640449438203,315.28125,447.62640449438203,315.28125,449.83146067415726,315.28125C452.03651685393254,315.28125,452.03651685393254,318.96875,454.2415730337078,318.96875C456.4466292134831,318.96875,456.4466292134831,317.125,458.6516853932584,317.125C460.8567415730337,317.125,460.8567415730337,333.71875,463.061797752809,333.71875C465.2668539325843,333.71875,465.2668539325843,348.46875,467.4719101123596,348.46875C469.67696629213486,348.46875,469.67696629213486,341.09375,471.88202247191015,341.09375C474.08707865168543,341.09375,474.08707865168543,330.03125,476.2921348314607,330.03125C478.497191011236,330.03125,478.497191011236,339.25,480.7022471910113,339.25C482.9073033707865,339.25,482.9073033707865,341.09375,485.11235955056173,341.09375C487.3174157303371,341.09375,487.3174157303371,331.875,489.52247191011236,331.875C491.72752808988764,331.875,491.72752808988764,330.03125,493.9325842696629,330.03125C496.1376404494382,330.03125,496.1376404494382,331.875,498.3426966292135,331.875C500.5477528089888,331.875,500.5477528089888,331.875,502.75280898876406,331.875C504.95786516853934,331.875,504.95786516853934,330.03125,507.1629213483146,330.03125C509.3679775280899,330.03125,509.3679775280899,331.875,511.5730337078652,331.875C513.7780898876405,331.875,513.7780898876405,335.5625,515.9831460674158,335.5625C518.1882022471909,335.5625,518.1882022471909,324.5,520.3932584269662,324.5C522.5983146067415,324.5,522.5983146067415,330.03125,524.8033707865168,330.03125C527.0084269662921,330.03125,527.0084269662921,322.65625,529.2134831460673,322.65625C531.4185393258426,322.65625,531.4185393258426,333.71875,533.623595505618,333.71875C535.8286516853933,333.71875,535.8286516853933,317.125,538.0337078651686,317.125C540.2387640449439,317.125,540.2387640449439,322.65625,542.4438202247192,322.65625C544.6488764044944,322.65625,544.6488764044944,322.65625,546.8539325842697,322.65625C549.058988764045,322.65625,549.058988764045,324.5,551.2640449438203,324.5C553.4691011235955,324.5,553.4691011235955,320.8125,555.6741573033707,320.8125C557.879213483146,320.8125,557.879213483146,315.28125,560.0842696629213,315.28125C562.2893258426966,315.28125,562.2893258426966,320.8125,564.4943820224719,320.8125C566.6994382022472,320.8125,566.6994382022472,322.65625,568.9044943820224,322.65625C571.1095505617977,322.65625,571.1095505617977,317.125,573.314606741573,317.125C575.5196629213483,317.125,575.5196629213483,317.125,577.7247191011236,317.125C579.9297752808989,317.125,579.9297752808989,313.4375,582.1348314606741,313.4375C584.3398876404494,313.4375,584.3398876404494,309.75,586.5449438202247,309.75C588.75,309.75,588.75,309.75,590.9550561797753,309.75C593.1601123595506,309.75,593.1601123595506,315.28125,595.3651685393259,315.28125C597.5702247191011,315.28125,597.5702247191011,313.4375,599.7752808988764,313.4375C601.9803370786517,313.4375,601.9803370786517,311.59375,604.185393258427,311.59375C606.3904494382023,311.59375,606.3904494382023,309.75,608.5955056179776,309.75C610.8005617977528,309.75,610.8005617977528,307.90625,613.0056179775281,307.90625C615.2106741573034,307.90625,615.2106741573034,307.90625,617.4157303370787,307.90625C619.620786516854,307.90625,619.620786516854,315.28125,621.8258426966293,315.28125C624.0308988764045,315.28125,624.0308988764045,311.59375,626.2359550561797,311.59375C628.441011235955,311.59375,628.441011235955,313.4375,630.6460674157303,313.4375C632.8511235955056,313.4375,632.8511235955056,313.4375,635.0561797752808,313.4375C637.2612359550561,313.4375,637.2612359550561,315.28125,639.4662921348314,315.28125C641.6713483146067,315.28125,641.6713483146067,311.59375,643.876404494382,311.59375C646.0814606741574,311.59375,646.0814606741574,317.125,648.2865168539327,317.125C650.4915730337079,317.125,650.4915730337079,317.125,652.6966292134832,317.125C654.9016853932585,317.125,654.9016853932585,317.125,657.1067415730338,317.125C659.3117977528091,317.125,659.3117977528091,318.96875,661.5168539325842,318.96875C663.7219101123595,318.96875,663.7219101123595,317.125,665.9269662921348,317.125C668.1320224719101,317.125,668.1320224719101,318.96875,670.3370786516854,318.96875C672.5421348314607,318.96875,672.5421348314607,315.28125,674.7471910112359,315.28125C676.9522471910112,315.28125,676.9522471910112,320.8125,679.1573033707865,320.8125C681.3623595505618,320.8125,681.3623595505618,318.96875,683.5674157303371,318.96875C685.7724719101124,318.96875,685.7724719101124,320.8125,687.9775280898876,320.8125C690.1825842696629,320.8125,690.1825842696629,315.28125,692.3876404494382,315.28125C694.5926966292135,315.28125,694.5926966292135,317.125,696.7977528089888,317.125C699.0028089887641,317.125,699.0028089887641,315.28125,701.2078651685393,315.28125C703.4129213483146,315.28125,703.4129213483146,315.28125,705.6179775280899,315.28125C707.8230337078652,315.28125,707.8230337078652,317.125,710.0280898876405,317.125C712.2331460674158,317.125,712.2331460674158,313.4375,714.438202247191,313.4375C716.6432584269663,313.4375,716.6432584269663,315.28125,718.8483146067416,315.28125C721.0533707865169,315.28125,721.0533707865169,315.28125,723.2584269662922,315.28125C725.4634831460675,315.28125,725.4634831460675,318.96875,727.6685393258427,318.96875C729.8735955056179,318.96875,729.8735955056179,318.96875,732.0786516853932,318.96875C734.2837078651685,318.96875,734.2837078651685,322.65625,736.4887640449438,322.65625C738.693820224719,322.65625,738.693820224719,317.125,740.8988764044943,317.125C743.1039325842696,317.125,743.1039325842696,315.28125,745.3089887640449,315.28125C747.5140449438202,315.28125,747.5140449438202,318.96875,749.7191011235955,318.96875C751.9241573033707,318.96875,751.9241573033707,315.28125,754.129213483146,315.28125C756.3342696629213,315.28125,756.3342696629213,317.125,758.5393258426966,317.125C760.7443820224719,317.125,760.7443820224719,315.28125,762.9494382022473,315.28125C765.1544943820224,315.28125,765.1544943820224,315.28125,767.3595505617977,315.28125C769.564606741573,315.28125,769.564606741573,318.96875,771.7696629213483,318.96875C773.9747191011236,318.96875,773.9747191011236,318.96875,776.1797752808989,318.96875C778.3848314606741,318.96875,778.3848314606741,317.125,780.5898876404494,317.125C782.7949438202247,317.125,782.7949438202247,317.125,785,317.125L785,346.625C782.7949438202247,346.625,782.7949438202247,346.625,780.5898876404494,346.625C778.3848314606741,346.625,778.3848314606741,348.46875,776.1797752808989,348.46875C773.9747191011236,348.46875,773.9747191011236,348.46875,771.7696629213483,348.46875C769.564606741573,348.46875,769.564606741573,348.46875,767.3595505617977,348.46875C765.1544943820224,348.46875,765.1544943820224,352.15625,762.9494382022473,352.15625C760.7443820224719,352.15625,760.7443820224719,350.3125,758.5393258426966,350.3125C756.3342696629213,350.3125,756.3342696629213,348.46875,754.129213483146,348.46875C751.9241573033707,348.46875,751.9241573033707,352.15625,749.7191011235955,352.15625C747.5140449438202,352.15625,747.5140449438202,352.15625,745.3089887640449,352.15625C743.1039325842696,352.15625,743.1039325842696,350.3125,740.8988764044943,350.3125C738.693820224719,350.3125,738.693820224719,355.84375,736.4887640449438,355.84375C734.2837078651685,355.84375,734.2837078651685,352.15625,732.0786516853932,352.15625C729.8735955056179,352.15625,729.8735955056179,352.15625,727.6685393258427,352.15625C725.4634831460675,352.15625,725.4634831460675,348.46875,723.2584269662922,348.46875C721.0533707865169,348.46875,721.0533707865169,352.15625,718.8483146067416,352.15625C716.6432584269663,352.15625,716.6432584269663,350.3125,714.438202247191,350.3125C712.2331460674158,350.3125,712.2331460674158,350.3125,710.0280898876405,350.3125C707.8230337078652,350.3125,707.8230337078652,352.15625,705.6179775280899,352.15625C703.4129213483146,352.15625,703.4129213483146,352.15625,701.2078651685393,352.15625C699.0028089887641,352.15625,699.0028089887641,354,696.7977528089888,354C694.5926966292135,354,694.5926966292135,355.84375,692.3876404494382,355.84375C690.1825842696629,355.84375,690.1825842696629,357.6875,687.9775280898876,357.6875C685.7724719101124,357.6875,685.7724719101124,359.53125,683.5674157303371,359.53125C681.3623595505618,359.53125,681.3623595505618,361.375,679.1573033707865,361.375C676.9522471910112,361.375,676.9522471910112,355.84375,674.7471910112359,355.84375C672.5421348314607,355.84375,672.5421348314607,359.53125,670.3370786516854,359.53125C668.1320224719101,359.53125,668.1320224719101,357.6875,665.9269662921348,357.6875C663.7219101123595,357.6875,663.7219101123595,359.53125,661.5168539325842,359.53125C659.3117977528091,359.53125,659.3117977528091,361.375,657.1067415730338,361.375C654.9016853932585,361.375,654.9016853932585,361.375,652.6966292134832,361.375C650.4915730337079,361.375,650.4915730337079,357.6875,648.2865168539327,357.6875C646.0814606741574,357.6875,646.0814606741574,348.46875,643.876404494382,348.46875C641.6713483146067,348.46875,641.6713483146067,355.84375,639.4662921348314,355.84375C637.2612359550561,355.84375,637.2612359550561,354,635.0561797752808,354C632.8511235955056,354,632.8511235955056,350.3125,630.6460674157303,350.3125C628.441011235955,350.3125,628.441011235955,348.46875,626.2359550561797,348.46875C624.0308988764045,348.46875,624.0308988764045,348.46875,621.8258426966293,348.46875C619.620786516854,348.46875,619.620786516854,348.46875,617.4157303370787,348.46875C615.2106741573034,348.46875,615.2106741573034,348.46875,613.0056179775281,348.46875C610.8005617977528,348.46875,610.8005617977528,346.625,608.5955056179776,346.625C606.3904494382023,346.625,606.3904494382023,348.46875,604.185393258427,348.46875C601.9803370786517,348.46875,601.9803370786517,346.625,599.7752808988764,346.625C597.5702247191011,346.625,597.5702247191011,352.15625,595.3651685393259,352.15625C593.1601123595506,352.15625,593.1601123595506,354,590.9550561797753,354C588.75,354,588.75,342.9375,586.5449438202247,342.9375C584.3398876404494,342.9375,584.3398876404494,354,582.1348314606741,354C579.9297752808989,354,579.9297752808989,346.625,577.7247191011236,346.625C575.5196629213483,346.625,575.5196629213483,357.6875,573.314606741573,357.6875C571.1095505617977,357.6875,571.1095505617977,355.84375,568.9044943820224,355.84375C566.6994382022472,355.84375,566.6994382022472,357.6875,564.4943820224719,357.6875C562.2893258426966,357.6875,562.2893258426966,366.90625,560.0842696629213,366.90625C557.879213483146,366.90625,557.879213483146,365.0625,555.6741573033707,365.0625C553.4691011235955,365.0625,553.4691011235955,376.125,551.2640449438203,376.125C549.058988764045,376.125,549.058988764045,355.84375,546.8539325842697,355.84375C544.6488764044944,355.84375,544.6488764044944,366.90625,542.4438202247192,366.90625C540.2387640449439,366.90625,540.2387640449439,368.75,538.0337078651686,368.75C535.8286516853933,368.75,535.8286516853933,377.96875,533.623595505618,377.96875C531.4185393258426,377.96875,531.4185393258426,366.90625,529.2134831460673,366.90625C527.0084269662921,366.90625,527.0084269662921,370.59375,524.8033707865168,370.59375C522.5983146067415,370.59375,522.5983146067415,361.375,520.3932584269662,361.375C518.1882022471909,361.375,518.1882022471909,379.8125,515.9831460674158,379.8125C513.7780898876405,379.8125,513.7780898876405,376.125,511.5730337078652,376.125C509.3679775280899,376.125,509.3679775280899,381.65625,507.1629213483146,381.65625C504.95786516853934,381.65625,504.95786516853934,387.1875,502.75280898876406,387.1875C500.5477528089888,387.1875,500.5477528089888,390.875,498.3426966292135,390.875C496.1376404494382,390.875,496.1376404494382,389.03125,493.9325842696629,389.03125C491.72752808988764,389.03125,491.72752808988764,394.5625,489.52247191011236,394.5625C487.3174157303371,394.5625,487.3174157303371,392.71875,485.11235955056173,392.71875C482.9073033707865,392.71875,482.9073033707865,398.25,480.7022471910113,398.25C478.497191011236,398.25,478.497191011236,389.03125,476.2921348314607,389.03125C474.08707865168543,389.03125,474.08707865168543,400.09375,471.88202247191015,400.09375C469.67696629213486,400.09375,469.67696629213486,407.46875,467.4719101123596,407.46875C465.2668539325843,407.46875,465.2668539325843,389.03125,463.061797752809,389.03125C460.8567415730337,389.03125,460.8567415730337,383.5,458.6516853932584,383.5C456.4466292134831,383.5,456.4466292134831,389.03125,454.2415730337078,389.03125C452.03651685393254,389.03125,452.03651685393254,385.34375,449.83146067415726,385.34375C447.62640449438203,385.34375,447.62640449438203,385.34375,445.4213483146068,385.34375C443.2162921348315,385.34375,443.2162921348315,379.8125,441.01123595505624,379.8125C438.80617977528095,379.8125,438.80617977528095,383.5,436.6011235955056,383.5C434.39606741573033,383.5,434.39606741573033,387.1875,432.19101123595505,387.1875C429.98595505617976,387.1875,429.98595505617976,389.03125,427.7808988764045,389.03125C425.5758426966292,389.03125,425.5758426966292,381.65625,423.3707865168539,381.65625C421.1657303370786,381.65625,421.1657303370786,376.125,418.96067415730334,376.125C416.75561797752806,376.125,416.75561797752806,387.1875,414.5505617977528,387.1875C412.34550561797755,387.1875,412.34550561797755,392.71875,410.14044943820227,392.71875C407.935393258427,392.71875,407.935393258427,407.46875,405.7303370786517,407.46875C403.5252808988764,407.46875,403.5252808988764,416.6875,401.32022471910113,416.6875C399.11516853932585,416.6875,399.11516853932585,409.3125,396.91011235955057,409.3125C394.7050561797753,409.3125,394.7050561797753,411.15625,392.5,411.15625C390.2949438202247,411.15625,390.2949438202247,433.28125,388.08988764044943,433.28125C385.88483146067415,433.28125,385.88483146067415,431.4375,383.67977528089887,431.4375C381.4747191011236,431.4375,381.4747191011236,457.25,379.2696629213483,457.25C377.064606741573,457.25,377.064606741573,442.5,374.85955056179773,442.5C372.65449438202245,442.5,372.65449438202245,448.03125,370.44943820224717,448.03125C368.2443820224719,448.03125,368.2443820224719,472,366.0393258426966,472C363.8342696629213,472,363.8342696629213,466.46875,361.6292134831461,466.46875C359.4241573033708,466.46875,359.4241573033708,295.84375,357.2191011235955,295.84375C355.01404494382024,295.84375,355.01404494382024,299.53125,352.80898876404495,299.53125C350.60393258426967,299.53125,350.60393258426967,556.8125,348.3988764044944,556.8125C346.1938202247191,556.8125,346.1938202247191,440.65625,343.9887640449438,440.65625C341.78370786516854,440.65625,341.78370786516854,459.09375,339.57865168539325,459.09375C337.37359550561797,459.09375,337.37359550561797,525.46875,335.1685393258427,525.46875C332.9634831460674,525.46875,332.9634831460674,294,330.7584269662921,294C328.5533707865169,294,328.5533707865169,429.59375,326.3483146067416,429.59375C324.1432584269663,429.59375,324.1432584269663,405.625,321.938202247191,405.625C319.7331460674157,405.625,319.7331460674157,295.84375,317.5280898876404,295.84375C315.32303370786514,295.84375,315.32303370786514,294,313.11797752808985,294C310.9129213483146,294,310.9129213483146,337.40625,308.70786516853934,337.40625C306.50280898876406,337.40625,306.50280898876406,333.71875,304.2977528089888,333.71875C302.0926966292135,333.71875,302.0926966292135,331.875,299.8876404494382,331.875C297.6825842696629,331.875,297.6825842696629,328.1875,295.47752808988764,328.1875C293.27247191011236,328.1875,293.27247191011236,326.34375,291.0674157303371,326.34375C288.8623595505618,326.34375,288.8623595505618,326.34375,286.6573033707865,326.34375C284.4522471910112,326.34375,284.4522471910112,328.1875,282.24719101123594,328.1875C280.04213483146066,328.1875,280.04213483146066,328.1875,277.8370786516854,328.1875C275.6320224719101,328.1875,275.6320224719101,322.65625,273.42696629213486,322.65625C271.2219101123596,322.65625,271.2219101123596,322.65625,269.0168539325843,322.65625C266.81179775280896,322.65625,266.81179775280896,322.65625,264.6067415730337,322.65625C262.4016853932584,322.65625,262.4016853932584,320.8125,260.1966292134831,320.8125C257.9915730337078,320.8125,257.9915730337078,320.8125,255.7865168539326,320.8125C253.5814606741573,320.8125,253.5814606741573,317.125,251.37640449438203,317.125C249.17134831460675,317.125,249.17134831460675,320.8125,246.96629213483146,320.8125C244.76123595505618,320.8125,244.76123595505618,317.125,242.55617977528087,317.125C240.3511235955056,317.125,240.3511235955056,313.4375,238.14606741573036,313.4375C235.94101123595507,313.4375,235.94101123595507,309.75,233.7359550561798,309.75C231.53089887640448,309.75,231.53089887640448,313.4375,229.3258426966292,313.4375C227.1207865168539,313.4375,227.1207865168539,313.4375,224.91573033707863,313.4375C222.71067415730337,313.4375,222.71067415730337,313.4375,220.50561797752812,313.4375C218.30056179775283,313.4375,218.30056179775283,315.28125,216.09550561797752,315.28125C213.89044943820224,315.28125,213.89044943820224,313.4375,211.68539325842696,313.4375C209.48033707865167,313.4375,209.48033707865167,313.4375,207.2752808988764,313.4375C205.07022471910113,313.4375,205.07022471910113,315.28125,202.86516853932585,315.28125C200.66011235955057,315.28125,200.66011235955057,313.4375,198.45505617977528,313.4375C196.25,313.4375,196.25,313.4375,194.04494382022472,313.4375C191.83988764044943,313.4375,191.83988764044943,313.4375,189.63483146067415,313.4375C187.42977528089887,313.4375,187.42977528089887,311.59375,185.22471910112358,311.59375C183.0196629213483,311.59375,183.0196629213483,313.4375,180.81460674157304,313.4375C178.60955056179776,313.4375,178.60955056179776,313.4375,176.40449438202248,313.4375C174.1994382022472,313.4375,174.1994382022472,309.75,171.9943820224719,309.75C169.78932584269663,309.75,169.78932584269663,309.75,167.58426966292134,309.75C165.3792134831461,309.75,165.3792134831461,309.75,163.1741573033708,309.75C160.96910112359552,309.75,160.96910112359552,311.59375,158.7640449438202,311.59375C156.55898876404495,311.59375,156.55898876404495,313.4375,154.35393258426967,313.4375C152.1488764044944,313.4375,152.1488764044944,309.75,149.9438202247191,309.75C147.73876404494382,309.75,147.73876404494382,311.59375,145.53370786516854,311.59375C143.32865168539325,311.59375,143.32865168539325,313.4375,141.12359550561797,313.4375C138.9185393258427,313.4375,138.9185393258427,313.4375,136.71348314606743,313.4375C134.50842696629212,313.4375,134.50842696629212,313.4375,132.30337078651684,313.4375C130.09831460674155,313.4375,130.09831460674155,313.4375,127.8932584269663,313.4375C125.68820224719101,313.4375,125.68820224719101,313.4375,123.48314606741573,313.4375C121.27808988764045,313.4375,121.27808988764045,313.4375,119.07303370786518,313.4375C116.86797752808988,313.4375,116.86797752808988,311.59375,114.6629213483146,311.59375C112.45786516853933,311.59375,112.45786516853933,313.4375,110.25280898876406,313.4375C108.04775280898878,313.4375,108.04775280898878,313.4375,105.84269662921348,313.4375C103.63764044943821,313.4375,103.63764044943821,315.28125,101.43258426966293,315.28125C99.22752808988764,315.28125,99.22752808988764,318.96875,97.02247191011236,318.96875C94.81741573033707,318.96875,94.81741573033707,317.125,92.61235955056179,317.125C90.40730337078651,317.125,90.40730337078651,315.28125,88.20224719101124,315.28125C85.99719101123596,315.28125,85.99719101123596,313.4375,83.79213483146067,313.4375C81.58707865168539,313.4375,81.58707865168539,317.125,79.3820224719101,317.125C77.17696629213484,317.125,77.17696629213484,315.28125,74.97191011235955,315.28125C72.76685393258427,315.28125,72.76685393258427,317.125,70.56179775280899,317.125C68.3567415730337,317.125,68.3567415730337,317.125,66.15168539325842,317.125C63.94662921348314,317.125,63.94662921348314,315.28125,61.741573033707866,315.28125C59.53651685393258,315.28125,59.53651685393258,317.125,57.3314606741573,317.125C55.126404494382015,317.125,55.126404494382015,313.4375,52.92134831460674,313.4375C50.71629213483146,313.4375,50.71629213483146,315.28125,48.51123595505618,315.28125C46.306179775280896,315.28125,46.306179775280896,317.125,44.10112359550562,317.125C41.896067415730336,317.125,41.896067415730336,315.28125,39.69101123595505,315.28125C37.485955056179776,315.28125,37.485955056179776,315.28125,35.28089887640449,315.28125C33.07584269662921,315.28125,33.07584269662921,315.28125,30.870786516853933,315.28125C28.66573033707865,315.28125,28.66573033707865,313.4375,26.46067415730337,313.4375C24.25561797752809,313.4375,24.25561797752809,313.4375,22.05056179775281,313.4375C19.84550561797753,313.4375,19.84550561797753,313.4375,17.640449438202246,313.4375C15.435393258426966,313.4375,15.435393258426966,317.125,13.230337078651685,317.125C11.025280898876403,317.125,11.025280898876403,313.4375,8.820224719101123,313.4375C6.615168539325842,313.4375,6.615168539325842,315.28125,4.410112359550562,315.28125C2.205056179775281,315.28125,2.205056179775281,315.28125,0,315.28125Z"><title>Sergio Massa</title></path></g><g id="xAxis" transform="translate(0,590)" fill="none" font-size="10" font-family="sans-serif" text-anchor="middle"><path class="domain" stroke="currentColor" d="M0,0H785"/><g class="tick" opacity="1" transform="translate(15.435393258426966,0)"><line stroke="currentColor" y2="6"/><text fill="currentColor" y="9" dy="0.71em">12 PM</text></g><g class="tick" opacity="1" transform="translate(114.6629213483146,0)"><line stroke="currentColor" y2="6"/><text fill="currentColor" y="9" dy="0.71em">03 PM</text></g><g class="tick" opacity="1" transform="translate(213.89044943820224,0)"><line stroke="currentColor" y2="6"/><text fill="currentColor" y="9" dy="0.71em">06 PM</text></g><g class="tick" opacity="1" transform="translate(313.11797752808985,0)"><line stroke="currentColor" y2="6"/><text fill="currentColor" y="9" dy="0.71em">09 PM</text></g><g class="tick" opacity="1" transform="translate(412.34550561797755,0)"><line stroke="currentColor" y2="6"/><text fill="currentColor" y="9" dy="0.71em">Mon 13</text></g><g class="tick" opacity="1" transform="translate(511.5730337078652,0)"><line stroke="currentColor" y2="6"/><text fill="currentColor" y="9" dy="0.71em">03 AM</text></g><g class="tick" opacity="1" transform="translate(610.8005617977527,0)"><line stroke="currentColor" y2="6"/><text fill="currentColor" y="9" dy="0.71em">06 AM</text></g><g class="tick" opacity="1" transform="translate(710.0280898876405,0)"><line stroke="currentColor" y2="6"/><text fill="currentColor" y="9" dy="0.71em">09 AM</text></g></g><text y="586" x="785" text-anchor="end" style="font-family: Arial, sans-serif; font-size: 12px; fill: rgb(123, 123, 123); font-weight: bold;">Time</text><text x="4" text-anchor="start" dominant-baseline="hanging" style="font-family: Arial, sans-serif; font-size: 12px; fill: rgb(123, 123, 123); font-weight: bold;">value</text><g id="labels"><text x="348.3988764044944" y="216.5625" text-anchor="middle" alignment-baseline="middle" style="font-family: Arial, sans-serif; font-size: 10px; fill: black; font-weight: bold;">Javier Milei</text><text x="335.1685393258427" y="422.21875" text-anchor="middle" alignment-baseline="middle" style="font-family: Arial, sans-serif; font-size: 10px; fill: black; font-weight: bold;">Sergio Massa</text></g></g></g></g></svg>