<svg xmlns="http://www.w3.org/2000/svg" width="805" height="600"><rect width="805" height="600" x="0" y="0" fill="#FFFFFF" id="background"/><g id="viz"><g transform="translate(0,0)"><g transform="translate(10,20)"><g><path fill="#db41e7" d="M0,259.75C2.205056179775281,259.75,2.205056179775281,259.75,4.410112359550562,259.75C6.615168539325842,259.75,6.615168539325842,261.5,8.820224719101123,261.5C11.025280898876403,261.5,11.025280898876403,258,13.230337078651685,258C15.435393258426966,258,15.435393258426966,261.5,17.640449438202246,261.5C19.84550561797753,261.5,19.84550561797753,261.5,22.05056179775281,261.5C24.25561797752809,261.5,24.25561797752809,261.5,26.46067415730337,261.5C28.66573033707865,261.5,28.66573033707865,259.75,30.870786516853933,259.75C33.07584269662921,259.75,33.07584269662921,259.75,35.28089887640449,259.75C37.485955056179776,259.75,37.485955056179776,259.75,39.69101123595505,259.75C41.896067415730336,259.75,41.896067415730336,258,44.10112359550562,258C46.306179775280896,258,46.306179775280896,259.75,48.51123595505618,259.75C50.71629213483146,259.75,50.71629213483146,261.5,52.92134831460674,261.5C55.126404494382015,261.5,55.126404494382015,258,57.3314606741573,258C59.53651685393258,258,59.53651685393258,259.75,61.741573033707866,259.75C63.94662921348314,259.75,63.94662921348314,258,66.15168539325842,258C68.3567415730337,258,68.3567415730337,258,70.56179775280899,258C72.76685393258427,258,72.76685393258427,259.75,74.97191011235955,259.75C77.17696629213484,259.75,77.17696629213484,258,79.3820224719101,258C81.58707865168539,258,81.58707865168539,261.5,83.79213483146067,261.5C85.99719101123596,261.5,85.99719101123596,259.75,88.20224719101124,259.75C90.40730337078651,259.75,90.40730337078651,258,92.61235955056179,258C94.81741573033707,258,94.81741573033707,256.25,97.02247191011236,256.25C99.22752808988764,256.25,99.22752808988764,259.75,101.43258426966293,259.75C103.63764044943821,259.75,103.63764044943821,261.5,105.84269662921348,261.5C108.04775280898878,261.5,108.04775280898878,261.5,110.25280898876406,261.5C112.45786516853933,261.5,112.45786516853933,263.25,114.6629213483146,263.25C116.86797752808988,263.25,116.86797752808988,261.5,119.07303370786518,261.5C121.27808988764045,261.5,121.27808988764045,261.5,123.48314606741573,261.5C125.68820224719101,261.5,125.68820224719101,261.5,127.8932584269663,261.5C130.09831460674155,261.5,130.09831460674155,261.5,132.30337078651684,261.5C134.50842696629212,261.5,134.50842696629212,261.5,136.71348314606743,261.5C138.9185393258427,261.5,138.9185393258427,261.5,141.12359550561797,261.5C143.32865168539325,261.5,143.32865168539325,263.25,145.53370786516854,263.25C147.73876404494382,263.25,147.73876404494382,265,149.9438202247191,265C152.1488764044944,265,152.1488764044944,261.5,154.35393258426967,261.5C156.55898876404495,261.5,156.55898876404495,263.25,158.7640449438202,263.25C160.96910112359552,263.25,160.96910112359552,265,163.1741573033708,265C165.3792134831461,265,165.3792134831461,265,167.58426966292134,265C169.78932584269663,265,169.78932584269663,265,171.9943820224719,265C174.1994382022472,265,174.1994382022472,261.5,176.40449438202248,261.5C178.60955056179776,261.5,178.60955056179776,261.5,180.81460674157304,261.5C183.0196629213483,261.5,183.0196629213483,263.25,185.22471910112358,263.25C187.42977528089887,263.25,187.42977528089887,261.5,189.63483146067415,261.5C191.83988764044943,261.5,191.83988764044943,261.5,194.04494382022472,261.5C196.25,261.5,196.25,261.5,198.45505617977528,261.5C200.66011235955057,261.5,200.66011235955057,259.75,202.86516853932585,259.75C205.07022471910113,259.75,205.07022471910113,261.5,207.2752808988764,261.5C209.48033707865167,261.5,209.48033707865167,261.5,211.68539325842696,261.5C213.89044943820224,261.5,213.89044943820224,259.75,216.09550561797752,259.75C218.30056179775283,259.75,218.30056179775283,261.5,220.50561797752812,261.5C222.71067415730337,261.5,222.71067415730337,261.5,224.91573033707863,261.5C227.1207865168539,261.5,227.1207865168539,261.5,229.3258426966292,261.5C231.53089887640448,261.5,231.53089887640448,265,233.7359550561798,265C235.94101123595507,265,235.94101123595507,261.5,238.14606741573036,261.5C240.3511235955056,261.5,240.3511235955056,258,242.55617977528087,258C244.76123595505618,258,244.76123595505618,254.50000000000003,246.96629213483146,254.50000000000003C249.17134831460675,254.50000000000003,249.17134831460675,258,251.37640449438203,258C253.5814606741573,258,253.5814606741573,254.50000000000003,255.7865168539326,254.50000000000003C257.9915730337078,254.50000000000003,257.9915730337078,254.50000000000003,260.1966292134831,254.50000000000003C262.4016853932584,254.50000000000003,262.4016853932584,252.75,264.6067415730337,252.75C266.81179775280896,252.75,266.81179775280896,252.75,269.0168539325843,252.75C271.2219101123596,252.75,271.2219101123596,252.75,273.42696629213486,252.75C275.6320224719101,252.75,275.6320224719101,247.5,277.8370786516854,247.5C280.04213483146066,247.5,280.04213483146066,247.5,282.24719101123594,247.5C284.4522471910112,247.5,284.4522471910112,249.25,286.6573033707865,249.25C288.8623595505618,249.25,288.8623595505618,249.25,291.0674157303371,249.25C293.27247191011236,249.25,293.27247191011236,247.5,295.47752808988764,247.5C297.6825842696629,247.5,297.6825842696629,244,299.8876404494382,244C302.0926966292135,244,302.0926966292135,242.24999999999997,304.2977528089888,242.24999999999997C306.50280898876406,242.24999999999997,306.50280898876406,238.75,308.70786516853934,238.75C310.9129213483146,238.75,310.9129213483146,280,313.11797752808985,280C315.32303370786514,280,315.32303370786514,281.75,317.5280898876404,281.75C319.7331460674157,281.75,319.7331460674157,174,321.938202247191,174C324.1432584269663,174,324.1432584269663,151.25,326.3483146067416,151.25C328.5533707865169,151.25,328.5533707865169,280,330.7584269662921,280C332.9634831460674,280,332.9634831460674,60.25,335.1685393258427,60.25C337.37359550561797,60.25,337.37359550561797,123.25000000000003,339.57865168539325,123.25000000000003C341.78370786516854,123.25000000000003,341.78370786516854,140.75000000000003,343.9887640449438,140.75000000000003C346.1938202247191,140.75000000000003,346.1938202247191,30.500000000000014,348.3988764044944,30.500000000000014C350.60393258426967,30.500000000000014,350.60393258426967,285.25,352.80898876404495,285.25C355.01404494382024,285.25,355.01404494382024,281.75,357.2191011235955,281.75C359.4241573033708,281.75,359.4241573033708,116.24999999999999,361.6292134831461,116.24999999999999C363.8342696629213,116.24999999999999,363.8342696629213,110.99999999999997,366.0393258426966,110.99999999999997C368.2443820224719,110.99999999999997,368.2443820224719,133.75,370.44943820224717,133.75C372.65449438202245,133.75,372.65449438202245,139,374.85955056179773,139C377.064606741573,139,377.064606741573,124.99999999999999,379.2696629213483,124.99999999999999C381.4747191011236,124.99999999999999,381.4747191011236,149.50000000000003,383.67977528089887,149.50000000000003C385.88483146067415,149.50000000000003,385.88483146067415,147.75,388.08988764044943,147.75C390.2949438202247,147.75,390.2949438202247,168.75,392.5,168.75C394.7050561797753,168.75,394.7050561797753,170.5,396.91011235955057,170.5C399.11516853932585,170.5,399.11516853932585,163.49999999999997,401.32022471910113,163.49999999999997C403.5252808988764,163.49999999999997,403.5252808988764,172.24999999999997,405.7303370786517,172.24999999999997C407.935393258427,172.24999999999997,407.935393258427,186.25,410.14044943820227,186.25C412.34550561797755,186.25,412.34550561797755,191.5,414.5505617977528,191.5C416.75561797752806,191.5,416.75561797752806,202.00000000000003,418.96067415730334,202.00000000000003C421.1657303370786,202.00000000000003,421.1657303370786,196.75,423.3707865168539,196.75C425.5758426966292,196.75,425.5758426966292,189.74999999999997,427.7808988764045,189.74999999999997C429.98595505617976,189.74999999999997,429.98595505617976,191.5,432.19101123595505,191.5C434.39606741573033,191.5,434.39606741573033,195,436.6011235955056,195C438.80617977528095,195,438.80617977528095,198.49999999999997,441.01123595505624,198.49999999999997C443.2162921348315,198.49999999999997,443.2162921348315,193.25000000000003,445.4213483146068,193.25000000000003C447.62640449438203,193.25000000000003,447.62640449438203,193.25000000000003,449.83146067415726,193.25000000000003C452.03651685393254,193.25000000000003,452.03651685393254,189.74999999999997,454.2415730337078,189.74999999999997C456.4466292134831,189.74999999999997,456.4466292134831,195,458.6516853932584,195C460.8567415730337,195,460.8567415730337,189.74999999999997,463.061797752809,189.74999999999997C465.2668539325843,189.74999999999997,465.2668539325843,172.24999999999997,467.4719101123596,172.24999999999997C469.67696629213486,172.24999999999997,469.67696629213486,179.25,471.88202247191015,179.25C474.08707865168543,179.25,474.08707865168543,189.74999999999997,476.2921348314607,189.74999999999997C478.497191011236,189.74999999999997,478.497191011236,180.99999999999997,480.7022471910113,180.99999999999997C482.9073033707865,180.99999999999997,482.9073033707865,186.25,485.11235955056173,186.25C487.3174157303371,186.25,487.3174157303371,184.50000000000003,489.52247191011236,184.50000000000003C491.72752808988764,184.50000000000003,491.72752808988764,189.74999999999997,493.9325842696629,189.74999999999997C496.1376404494382,189.74999999999997,496.1376404494382,188,498.3426966292135,188C500.5477528089888,188,500.5477528089888,191.5,502.75280898876406,191.5C504.95786516853934,191.5,504.95786516853934,196.75,507.1629213483146,196.75C509.3679775280899,196.75,509.3679775280899,202.00000000000003,511.5730337078652,202.00000000000003C513.7780898876405,202.00000000000003,513.7780898876405,198.49999999999997,515.9831460674158,198.49999999999997C518.1882022471909,198.49999999999997,518.1882022471909,215.99999999999997,520.3932584269662,215.99999999999997C522.5983146067415,215.99999999999997,522.5983146067415,207.24999999999997,524.8033707865168,207.24999999999997C527.0084269662921,207.24999999999997,527.0084269662921,210.75000000000003,529.2134831460673,210.75000000000003C531.4185393258426,210.75000000000003,531.4185393258426,200.25,533.623595505618,200.25C535.8286516853933,200.25,535.8286516853933,209,538.0337078651686,209C540.2387640449439,209,540.2387640449439,210.75000000000003,542.4438202247192,210.75000000000003C544.6488764044944,210.75000000000003,544.6488764044944,221.25,546.8539325842697,221.25C549.058988764045,221.25,549.058988764045,202.00000000000003,551.2640449438203,202.00000000000003C553.4691011235955,202.00000000000003,553.4691011235955,212.5,555.6741573033707,212.5C557.879213483146,212.5,557.879213483146,210.75000000000003,560.0842696629213,210.75000000000003C562.2893258426966,210.75000000000003,562.2893258426966,219.50000000000003,564.4943820224719,219.50000000000003C566.6994382022472,219.50000000000003,566.6994382022472,221.25,568.9044943820224,221.25C571.1095505617977,221.25,571.1095505617977,219.50000000000003,573.314606741573,219.50000000000003C575.5196629213483,219.50000000000003,575.5196629213483,230,577.7247191011236,230C579.9297752808989,230,579.9297752808989,223,582.1348314606741,223C584.3398876404494,223,584.3398876404494,233.49999999999997,586.5449438202247,233.49999999999997C588.75,233.49999999999997,588.75,223,590.9550561797753,223C593.1601123595506,223,593.1601123595506,224.74999999999997,595.3651685393259,224.74999999999997C597.5702247191011,224.74999999999997,597.5702247191011,230,599.7752808988764,230C601.9803370786517,230,601.9803370786517,228.25000000000003,604.185393258427,228.25000000000003C606.3904494382023,228.25000000000003,606.3904494382023,230,608.5955056179776,230C610.8005617977528,230,610.8005617977528,228.25000000000003,613.0056179775281,228.25000000000003C615.2106741573034,228.25000000000003,615.2106741573034,228.25000000000003,617.4157303370787,228.25000000000003C619.620786516854,228.25000000000003,619.620786516854,228.25000000000003,621.8258426966293,228.25000000000003C624.0308988764045,228.25000000000003,624.0308988764045,228.25000000000003,626.2359550561797,228.25000000000003C628.441011235955,228.25000000000003,628.441011235955,226.5,630.6460674157303,226.5C632.8511235955056,226.5,632.8511235955056,223,635.0561797752808,223C637.2612359550561,223,637.2612359550561,221.25,639.4662921348314,221.25C641.6713483146067,221.25,641.6713483146067,228.25000000000003,643.876404494382,228.25000000000003C646.0814606741574,228.25000000000003,646.0814606741574,219.50000000000003,648.2865168539327,219.50000000000003C650.4915730337079,219.50000000000003,650.4915730337079,215.99999999999997,652.6966292134832,215.99999999999997C654.9016853932585,215.99999999999997,654.9016853932585,215.99999999999997,657.1067415730338,215.99999999999997C659.3117977528091,215.99999999999997,659.3117977528091,217.75,661.5168539325842,217.75C663.7219101123595,217.75,663.7219101123595,219.50000000000003,665.9269662921348,219.50000000000003C668.1320224719101,219.50000000000003,668.1320224719101,217.75,670.3370786516854,217.75C672.5421348314607,217.75,672.5421348314607,221.25,674.7471910112359,221.25C676.9522471910112,221.25,676.9522471910112,215.99999999999997,679.1573033707865,215.99999999999997C681.3623595505618,215.99999999999997,681.3623595505618,217.75,683.5674157303371,217.75C685.7724719101124,217.75,685.7724719101124,219.50000000000003,687.9775280898876,219.50000000000003C690.1825842696629,219.50000000000003,690.1825842696629,221.25,692.3876404494382,221.25C694.5926966292135,221.25,694.5926966292135,223,696.7977528089888,223C699.0028089887641,223,699.0028089887641,224.74999999999997,701.2078651685393,224.74999999999997C703.4129213483146,224.74999999999997,703.4129213483146,224.74999999999997,705.6179775280899,224.74999999999997C707.8230337078652,224.74999999999997,707.8230337078652,226.5,710.0280898876405,226.5C712.2331460674158,226.5,712.2331460674158,226.5,714.438202247191,226.5C716.6432584269663,226.5,716.6432584269663,224.74999999999997,718.8483146067416,224.74999999999997C721.0533707865169,224.74999999999997,721.0533707865169,228.25000000000003,723.2584269662922,228.25000000000003C725.4634831460675,228.25000000000003,725.4634831460675,224.74999999999997,727.6685393258427,224.74999999999997C729.8735955056179,224.74999999999997,729.8735955056179,224.74999999999997,732.0786516853932,224.74999999999997C734.2837078651685,224.74999999999997,734.2837078651685,221.25,736.4887640449438,221.25C738.693820224719,221.25,738.693820224719,226.5,740.8988764044943,226.5C743.1039325842696,226.5,743.1039325842696,224.74999999999997,745.3089887640449,224.74999999999997C747.5140449438202,224.74999999999997,747.5140449438202,224.74999999999997,749.7191011235955,224.74999999999997C751.9241573033707,224.74999999999997,751.9241573033707,228.25000000000003,754.129213483146,228.25000000000003C756.3342696629213,228.25000000000003,756.3342696629213,226.5,758.5393258426966,226.5C760.7443820224719,226.5,760.7443820224719,224.74999999999997,762.9494382022473,224.74999999999997C765.1544943820224,224.74999999999997,765.1544943820224,228.25000000000003,767.3595505617977,228.25000000000003C769.564606741573,228.25000000000003,769.564606741573,228.25000000000003,771.7696629213483,228.25000000000003C773.9747191011236,228.25000000000003,773.9747191011236,228.25000000000003,776.1797752808989,228.25000000000003C778.3848314606741,228.25000000000003,778.3848314606741,230,780.5898876404494,230C782.7949438202247,230,782.7949438202247,230,785,230L785,300C782.7949438202247,300,782.7949438202247,300,780.5898876404494,300C778.3848314606741,300,778.3848314606741,301.75,776.1797752808989,301.75C773.9747191011236,301.75,773.9747191011236,301.75,771.7696629213483,301.75C769.564606741573,301.75,769.564606741573,298.25,767.3595505617977,298.25C765.1544943820224,298.25,765.1544943820224,298.25,762.9494382022473,298.25C760.7443820224719,298.25,760.7443820224719,300,758.5393258426966,300C756.3342696629213,300,756.3342696629213,298.25,754.129213483146,298.25C751.9241573033707,298.25,751.9241573033707,301.75,749.7191011235955,301.75C747.5140449438202,301.75,747.5140449438202,298.25,745.3089887640449,298.25C743.1039325842696,298.25,743.1039325842696,300,740.8988764044943,300C738.693820224719,300,738.693820224719,305.25,736.4887640449438,305.25C734.2837078651685,305.25,734.2837078651685,301.75,732.0786516853932,301.75C729.8735955056179,301.75,729.8735955056179,301.75,727.6685393258427,301.75C725.4634831460675,301.75,725.4634831460675,298.25,723.2584269662922,298.25C721.0533707865169,298.25,721.0533707865169,298.25,718.8483146067416,298.25C716.6432584269663,298.25,716.6432584269663,296.5,714.438202247191,296.5C712.2331460674158,296.5,712.2331460674158,300,710.0280898876405,300C707.8230337078652,300,707.8230337078652,298.25,705.6179775280899,298.25C703.4129213483146,298.25,703.4129213483146,298.25,701.2078651685393,298.25C699.0028089887641,298.25,699.0028089887641,300,696.7977528089888,300C694.5926966292135,300,694.5926966292135,298.25,692.3876404494382,298.25C690.1825842696629,298.25,690.1825842696629,303.5,687.9775280898876,303.5C685.7724719101124,303.5,685.7724719101124,301.75,683.5674157303371,301.75C681.3623595505618,301.75,681.3623595505618,303.5,679.1573033707865,303.5C676.9522471910112,303.5,676.9522471910112,298.25,674.7471910112359,298.25C672.5421348314607,298.25,672.5421348314607,301.75,670.3370786516854,301.75C668.1320224719101,301.75,668.1320224719101,300,665.9269662921348,300C663.7219101123595,300,663.7219101123595,301.75,661.5168539325842,301.75C659.3117977528091,301.75,659.3117977528091,300,657.1067415730338,300C654.9016853932585,300,654.9016853932585,300,652.6966292134832,300C650.4915730337079,300,650.4915730337079,300,648.2865168539327,300C646.0814606741574,300,646.0814606741574,294.75,643.876404494382,294.75C641.6713483146067,294.75,641.6713483146067,298.25,639.4662921348314,298.25C637.2612359550561,298.25,637.2612359550561,296.5,635.0561797752808,296.5C632.8511235955056,296.5,632.8511235955056,296.5,630.6460674157303,296.5C628.441011235955,296.5,628.441011235955,294.75,626.2359550561797,294.75C624.0308988764045,294.75,624.0308988764045,298.25,621.8258426966293,298.25C619.620786516854,298.25,619.620786516854,291.25,617.4157303370787,291.25C615.2106741573034,291.25,615.2106741573034,291.25,613.0056179775281,291.25C610.8005617977528,291.25,610.8005617977528,293,608.5955056179776,293C606.3904494382023,293,606.3904494382023,294.75,604.185393258427,294.75C601.9803370786517,294.75,601.9803370786517,296.5,599.7752808988764,296.5C597.5702247191011,296.5,597.5702247191011,298.25,595.3651685393259,298.25C593.1601123595506,298.25,593.1601123595506,293,590.9550561797753,293C588.75,293,588.75,293,586.5449438202247,293C584.3398876404494,293,584.3398876404494,296.5,582.1348314606741,296.5C579.9297752808989,296.5,579.9297752808989,300,577.7247191011236,300C575.5196629213483,300,575.5196629213483,300,573.314606741573,300C571.1095505617977,300,571.1095505617977,305.25,568.9044943820224,305.25C566.6994382022472,305.25,566.6994382022472,303.5,564.4943820224719,303.5C562.2893258426966,303.5,562.2893258426966,298.25,560.0842696629213,298.25C557.879213483146,298.25,557.879213483146,303.5,555.6741573033707,303.5C553.4691011235955,303.5,553.4691011235955,307,551.2640449438203,307C549.058988764045,307,549.058988764045,305.25,546.8539325842697,305.25C544.6488764044944,305.25,544.6488764044944,305.25,542.4438202247192,305.25C540.2387640449439,305.25,540.2387640449439,300,538.0337078651686,300C535.8286516853933,300,535.8286516853933,315.75,533.623595505618,315.75C531.4185393258426,315.75,531.4185393258426,305.25,529.2134831460673,305.25C527.0084269662921,305.25,527.0084269662921,312.25,524.8033707865168,312.25C522.5983146067415,312.25,522.5983146067415,307,520.3932584269662,307C518.1882022471909,307,518.1882022471909,317.5,515.9831460674158,317.5C513.7780898876405,317.5,513.7780898876405,314,511.5730337078652,314C509.3679775280899,314,509.3679775280899,312.25,507.1629213483146,312.25C504.95786516853934,312.25,504.95786516853934,314,502.75280898876406,314C500.5477528089888,314,500.5477528089888,314,498.3426966292135,314C496.1376404494382,314,496.1376404494382,312.25,493.9325842696629,312.25C491.72752808988764,312.25,491.72752808988764,314,489.52247191011236,314C487.3174157303371,314,487.3174157303371,322.75,485.11235955056173,322.75C482.9073033707865,322.75,482.9073033707865,321,480.7022471910113,321C478.497191011236,321,478.497191011236,312.25,476.2921348314607,312.25C474.08707865168543,312.25,474.08707865168543,322.75,471.88202247191015,322.75C469.67696629213486,322.75,469.67696629213486,329.75,467.4719101123596,329.75C465.2668539325843,329.75,465.2668539325843,315.75,463.061797752809,315.75C460.8567415730337,315.75,460.8567415730337,300,458.6516853932584,300C456.4466292134831,300,456.4466292134831,301.75,454.2415730337078,301.75C452.03651685393254,301.75,452.03651685393254,298.25,449.83146067415726,298.25C447.62640449438203,298.25,447.62640449438203,298.25,445.4213483146068,298.25C443.2162921348315,298.25,443.2162921348315,289.5,441.01123595505624,289.5C438.80617977528095,289.5,438.80617977528095,293,436.6011235955056,293C434.39606741573033,293,434.39606741573033,289.5,432.19101123595505,289.5C429.98595505617976,289.5,429.98595505617976,291.25,427.7808988764045,291.25C425.5758426966292,291.25,425.5758426966292,291.25,423.3707865168539,291.25C421.1657303370786,291.25,421.1657303370786,289.5,418.96067415730334,289.5C416.75561797752806,289.5,416.75561797752806,286,414.5505617977528,286C412.34550561797755,286,412.34550561797755,291.25,410.14044943820227,291.25C407.935393258427,291.25,407.935393258427,291.25,405.7303370786517,291.25C403.5252808988764,291.25,403.5252808988764,296.5,401.32022471910113,296.5C399.11516853932585,296.5,399.11516853932585,296.5,396.91011235955057,296.5C394.7050561797753,296.5,394.7050561797753,284.25,392.5,284.25C390.2949438202247,284.25,390.2949438202247,284.25,388.08988764044943,284.25C385.88483146067415,284.25,385.88483146067415,289.5,383.67977528089887,289.5C381.4747191011236,289.5,381.4747191011236,300,379.2696629213483,300C377.064606741573,300,377.064606741573,282.5,374.85955056179773,282.5C372.65449438202245,282.5,372.65449438202245,280.75,370.44943820224717,280.75C368.2443820224719,280.75,368.2443820224719,317.5,366.0393258426966,317.5C363.8342696629213,317.5,363.8342696629213,298.25,361.6292134831461,298.25C359.4241573033708,298.25,359.4241573033708,425.25,357.2191011235955,425.25C355.01404494382024,425.25,355.01404494382024,453.25,352.80898876404495,453.25C350.60393258426967,453.25,350.60393258426967,380.5,348.3988764044944,380.5C346.1938202247191,380.5,346.1938202247191,287.75,343.9887640449438,287.75C341.78370786516854,287.75,341.78370786516854,305.25,339.57865168539325,305.25C337.37359550561797,305.25,337.37359550561797,301.75,335.1685393258427,301.75C332.9634831460674,301.75,332.9634831460674,399,330.7584269662921,399C328.5533707865169,399,328.5533707865169,322.75,326.3483146067416,322.75C324.1432584269663,322.75,324.1432584269663,286,321.938202247191,286C319.7331460674157,286,319.7331460674157,344.75,317.5280898876404,344.75C315.32303370786514,344.75,315.32303370786514,329,313.11797752808985,329C310.9129213483146,329,310.9129213483146,284.25,308.70786516853934,284.25C306.50280898876406,284.25,306.50280898876406,284.25,304.2977528089888,284.25C302.0926966292135,284.25,302.0926966292135,286,299.8876404494382,286C297.6825842696629,286,297.6825842696629,282.5,295.47752808988764,282.5C293.27247191011236,282.5,293.27247191011236,284.25,291.0674157303371,284.25C288.8623595505618,284.25,288.8623595505618,284.25,286.6573033707865,284.25C284.4522471910112,284.25,284.4522471910112,282.5,282.24719101123594,282.5C280.04213483146066,282.5,280.04213483146066,282.5,277.8370786516854,282.5C275.6320224719101,282.5,275.6320224719101,284.25,273.42696629213486,284.25C271.2219101123596,284.25,271.2219101123596,284.25,269.0168539325843,284.25C266.81179775280896,284.25,266.81179775280896,284.25,264.6067415730337,284.25C262.4016853932584,284.25,262.4016853932584,282.5,260.1966292134831,282.5C257.9915730337078,282.5,257.9915730337078,282.5,255.7865168539326,282.5C253.5814606741573,282.5,253.5814606741573,282.5,251.37640449438203,282.5C249.17134831460675,282.5,249.17134831460675,282.5,246.96629213483146,282.5C244.76123595505618,282.5,244.76123595505618,282.5,242.55617977528087,282.5C240.3511235955056,282.5,240.3511235955056,282.5,238.14606741573036,282.5C235.94101123595507,282.5,235.94101123595507,282.5,233.7359550561798,282.5C231.53089887640448,282.5,231.53089887640448,282.5,229.3258426966292,282.5C227.1207865168539,282.5,227.1207865168539,282.5,224.91573033707863,282.5C222.71067415730337,282.5,222.71067415730337,282.5,220.50561797752812,282.5C218.30056179775283,282.5,218.30056179775283,280.75,216.09550561797752,280.75C213.89044943820224,280.75,213.89044943820224,282.5,211.68539325842696,282.5C209.48033707865167,282.5,209.48033707865167,282.5,207.2752808988764,282.5C205.07022471910113,282.5,205.07022471910113,280.75,202.86516853932585,280.75C200.66011235955057,280.75,200.66011235955057,282.5,198.45505617977528,282.5C196.25,282.5,196.25,282.5,194.04494382022472,282.5C191.83988764044943,282.5,191.83988764044943,282.5,189.63483146067415,282.5C187.42977528089887,282.5,187.42977528089887,280.75,185.22471910112358,280.75C183.0196629213483,280.75,183.0196629213483,282.5,180.81460674157304,282.5C178.60955056179776,282.5,178.60955056179776,282.5,176.40449438202248,282.5C174.1994382022472,282.5,174.1994382022472,282.5,171.9943820224719,282.5C169.78932584269663,282.5,169.78932584269663,282.5,167.58426966292134,282.5C165.3792134831461,282.5,165.3792134831461,282.5,163.1741573033708,282.5C160.96910112359552,282.5,160.96910112359552,284.25,158.7640449438202,284.25C156.55898876404495,284.25,156.55898876404495,282.5,154.35393258426967,282.5C152.1488764044944,282.5,152.1488764044944,282.5,149.9438202247191,282.5C147.73876404494382,282.5,147.73876404494382,280.75,145.53370786516854,280.75C143.32865168539325,280.75,143.32865168539325,282.5,141.12359550561797,282.5C138.9185393258427,282.5,138.9185393258427,282.5,136.71348314606743,282.5C134.50842696629212,282.5,134.50842696629212,282.5,132.30337078651684,282.5C130.09831460674155,282.5,130.09831460674155,282.5,127.8932584269663,282.5C125.68820224719101,282.5,125.68820224719101,282.5,123.48314606741573,282.5C121.27808988764045,282.5,121.27808988764045,282.5,119.07303370786518,282.5C116.86797752808988,282.5,116.86797752808988,280.75,114.6629213483146,280.75C112.45786516853933,280.75,112.45786516853933,282.5,110.25280898876406,282.5C108.04775280898878,282.5,108.04775280898878,282.5,105.84269662921348,282.5C103.63764044943821,282.5,103.63764044943821,284.25,101.43258426966293,284.25C99.22752808988764,284.25,99.22752808988764,284.25,97.02247191011236,284.25C94.81741573033707,284.25,94.81741573033707,282.5,92.61235955056179,282.5C90.40730337078651,282.5,90.40730337078651,284.25,88.20224719101124,284.25C85.99719101123596,284.25,85.99719101123596,282.5,83.79213483146067,282.5C81.58707865168539,282.5,81.58707865168539,282.5,79.3820224719101,282.5C77.17696629213484,282.5,77.17696629213484,284.25,74.97191011235955,284.25C72.76685393258427,284.25,72.76685393258427,286,70.56179775280899,286C68.3567415730337,286,68.3567415730337,286,66.15168539325842,286C63.94662921348314,286,63.94662921348314,284.25,61.741573033707866,284.25C59.53651685393258,284.25,59.53651685393258,282.5,57.3314606741573,282.5C55.126404494382015,282.5,55.126404494382015,282.5,52.92134831460674,282.5C50.71629213483146,282.5,50.71629213483146,284.25,48.51123595505618,284.25C46.306179775280896,284.25,46.306179775280896,282.5,44.10112359550562,282.5C41.896067415730336,282.5,41.896067415730336,280.75,39.69101123595505,280.75C37.485955056179776,280.75,37.485955056179776,284.25,35.28089887640449,284.25C33.07584269662921,284.25,33.07584269662921,284.25,30.870786516853933,284.25C28.66573033707865,284.25,28.66573033707865,282.5,26.46067415730337,282.5C24.25561797752809,282.5,24.25561797752809,282.5,22.05056179775281,282.5C19.84550561797753,282.5,19.84550561797753,282.5,17.640449438202246,282.5C15.435393258426966,282.5,15.435393258426966,282.5,13.230337078651685,282.5C11.025280898876403,282.5,11.025280898876403,282.5,8.820224719101123,282.5C6.615168539325842,282.5,6.615168539325842,284.25,4.410112359550562,284.25C2.205056179775281,284.25,2.205056179775281,284.25,0,284.25Z"><title>Javier Milei</title></path><path fill="#249feb" d="M0,285.25C2.205056179775281,285.25,2.205056179775281,285.25,4.410112359550562,285.25C6.615168539325842,285.25,6.615168539325842,283.5,8.820224719101123,283.5C11.025280898876403,283.5,11.025280898876403,283.5,13.230337078651685,283.5C15.435393258426966,283.5,15.435393258426966,283.5,17.640449438202246,283.5C19.84550561797753,283.5,19.84550561797753,283.5,22.05056179775281,283.5C24.25561797752809,283.5,24.25561797752809,283.5,26.46067415730337,283.5C28.66573033707865,283.5,28.66573033707865,285.25,30.870786516853933,285.25C33.07584269662921,285.25,33.07584269662921,285.25,35.28089887640449,285.25C37.485955056179776,285.25,37.485955056179776,281.75,39.69101123595505,281.75C41.896067415730336,281.75,41.896067415730336,283.5,44.10112359550562,283.5C46.306179775280896,283.5,46.306179775280896,285.25,48.51123595505618,285.25C50.71629213483146,285.25,50.71629213483146,283.5,52.92134831460674,283.5C55.126404494382015,283.5,55.126404494382015,283.5,57.3314606741573,283.5C59.53651685393258,283.5,59.53651685393258,285.25,61.741573033707866,285.25C63.94662921348314,285.25,63.94662921348314,287,66.15168539325842,287C68.3567415730337,287,68.3567415730337,287,70.56179775280899,287C72.76685393258427,287,72.76685393258427,285.25,74.97191011235955,285.25C77.17696629213484,285.25,77.17696629213484,283.5,79.3820224719101,283.5C81.58707865168539,283.5,81.58707865168539,283.5,83.79213483146067,283.5C85.99719101123596,283.5,85.99719101123596,285.25,88.20224719101124,285.25C90.40730337078651,285.25,90.40730337078651,283.5,92.61235955056179,283.5C94.81741573033707,283.5,94.81741573033707,285.25,97.02247191011236,285.25C99.22752808988764,285.25,99.22752808988764,285.25,101.43258426966293,285.25C103.63764044943821,285.25,103.63764044943821,283.5,105.84269662921348,283.5C108.04775280898878,283.5,108.04775280898878,283.5,110.25280898876406,283.5C112.45786516853933,283.5,112.45786516853933,281.75,114.6629213483146,281.75C116.86797752808988,281.75,116.86797752808988,283.5,119.07303370786518,283.5C121.27808988764045,283.5,121.27808988764045,283.5,123.48314606741573,283.5C125.68820224719101,283.5,125.68820224719101,283.5,127.8932584269663,283.5C130.09831460674155,283.5,130.09831460674155,283.5,132.30337078651684,283.5C134.50842696629212,283.5,134.50842696629212,283.5,136.71348314606743,283.5C138.9185393258427,283.5,138.9185393258427,283.5,141.12359550561797,283.5C143.32865168539325,283.5,143.32865168539325,281.75,145.53370786516854,281.75C147.73876404494382,281.75,147.73876404494382,283.5,149.9438202247191,283.5C152.1488764044944,283.5,152.1488764044944,283.5,154.35393258426967,283.5C156.55898876404495,283.5,156.55898876404495,285.25,158.7640449438202,285.25C160.96910112359552,285.25,160.96910112359552,283.5,163.1741573033708,283.5C165.3792134831461,283.5,165.3792134831461,283.5,167.58426966292134,283.5C169.78932584269663,283.5,169.78932584269663,283.5,171.9943820224719,283.5C174.1994382022472,283.5,174.1994382022472,283.5,176.40449438202248,283.5C178.60955056179776,283.5,178.60955056179776,283.5,180.81460674157304,283.5C183.0196629213483,283.5,183.0196629213483,281.75,185.22471910112358,281.75C187.42977528089887,281.75,187.42977528089887,283.5,189.63483146067415,283.5C191.83988764044943,283.5,191.83988764044943,283.5,194.04494382022472,283.5C196.25,283.5,196.25,283.5,198.45505617977528,283.5C200.66011235955057,283.5,200.66011235955057,281.75,202.86516853932585,281.75C205.07022471910113,281.75,205.07022471910113,283.5,207.2752808988764,283.5C209.48033707865167,283.5,209.48033707865167,283.5,211.68539325842696,283.5C213.89044943820224,283.5,213.89044943820224,281.75,216.09550561797752,281.75C218.30056179775283,281.75,218.30056179775283,283.5,220.50561797752812,283.5C222.71067415730337,283.5,222.71067415730337,283.5,224.91573033707863,283.5C227.1207865168539,283.5,227.1207865168539,283.5,229.3258426966292,283.5C231.53089887640448,283.5,231.53089887640448,283.5,233.7359550561798,283.5C235.94101123595507,283.5,235.94101123595507,283.5,238.14606741573036,283.5C240.3511235955056,283.5,240.3511235955056,283.5,242.55617977528087,283.5C244.76123595505618,283.5,244.76123595505618,283.5,246.96629213483146,283.5C249.17134831460675,283.5,249.17134831460675,283.5,251.37640449438203,283.5C253.5814606741573,283.5,253.5814606741573,283.5,255.7865168539326,283.5C257.9915730337078,283.5,257.9915730337078,283.5,260.1966292134831,283.5C262.4016853932584,283.5,262.4016853932584,285.25,264.6067415730337,285.25C266.81179775280896,285.25,266.81179775280896,285.25,269.0168539325843,285.25C271.2219101123596,285.25,271.2219101123596,285.25,273.42696629213486,285.25C275.6320224719101,285.25,275.6320224719101,283.5,277.8370786516854,283.5C280.04213483146066,283.5,280.04213483146066,283.5,282.24719101123594,283.5C284.4522471910112,283.5,284.4522471910112,285.25,286.6573033707865,285.25C288.8623595505618,285.25,288.8623595505618,285.25,291.0674157303371,285.25C293.27247191011236,285.25,293.27247191011236,283.5,295.47752808988764,283.5C297.6825842696629,283.5,297.6825842696629,287,299.8876404494382,287C302.0926966292135,287,302.0926966292135,285.25,304.2977528089888,285.25C306.50280898876406,285.25,306.50280898876406,285.25,308.70786516853934,285.25C310.9129213483146,285.25,310.9129213483146,230,313.11797752808985,230C315.32303370786514,230,315.32303370786514,214.25,317.5280898876404,214.25C319.7331460674157,214.25,319.7331460674157,287,321.938202247191,287C324.1432584269663,287,324.1432584269663,323.75,326.3483146067416,323.75C328.5533707865169,323.75,328.5533707865169,160,330.7584269662921,160C332.9634831460674,160,332.9634831460674,302.75,335.1685393258427,302.75C337.37359550561797,302.75,337.37359550561797,306.25,339.57865168539325,306.25C341.78370786516854,306.25,341.78370786516854,288.75,343.9887640449438,288.75C346.1938202247191,288.75,346.1938202247191,381.5,348.3988764044944,381.5C350.60393258426967,381.5,350.60393258426967,105.75000000000003,352.80898876404495,105.75000000000003C355.01404494382024,105.75000000000003,355.01404494382024,133.75,357.2191011235955,133.75C359.4241573033708,133.75,359.4241573033708,299.25,361.6292134831461,299.25C363.8342696629213,299.25,363.8342696629213,318.5,366.0393258426966,318.5C368.2443820224719,318.5,368.2443820224719,281.75,370.44943820224717,281.75C372.65449438202245,281.75,372.65449438202245,283.5,374.85955056179773,283.5C377.064606741573,283.5,377.064606741573,301,379.2696629213483,301C381.4747191011236,301,381.4747191011236,290.5,383.67977528089887,290.5C385.88483146067415,290.5,385.88483146067415,285.25,388.08988764044943,285.25C390.2949438202247,285.25,390.2949438202247,285.25,392.5,285.25C394.7050561797753,285.25,394.7050561797753,297.5,396.91011235955057,297.5C399.11516853932585,297.5,399.11516853932585,297.5,401.32022471910113,297.5C403.5252808988764,297.5,403.5252808988764,292.25,405.7303370786517,292.25C407.935393258427,292.25,407.935393258427,292.25,410.14044943820227,292.25C412.34550561797755,292.25,412.34550561797755,287,414.5505617977528,287C416.75561797752806,287,416.75561797752806,290.5,418.96067415730334,290.5C421.1657303370786,290.5,421.1657303370786,292.25,423.3707865168539,292.25C425.5758426966292,292.25,425.5758426966292,292.25,427.7808988764045,292.25C429.98595505617976,292.25,429.98595505617976,290.5,432.19101123595505,290.5C434.39606741573033,290.5,434.39606741573033,294,436.6011235955056,294C438.80617977528095,294,438.80617977528095,290.5,441.01123595505624,290.5C443.2162921348315,290.5,443.2162921348315,299.25,445.4213483146068,299.25C447.62640449438203,299.25,447.62640449438203,299.25,449.83146067415726,299.25C452.03651685393254,299.25,452.03651685393254,302.75,454.2415730337078,302.75C456.4466292134831,302.75,456.4466292134831,301,458.6516853932584,301C460.8567415730337,301,460.8567415730337,316.75,463.061797752809,316.75C465.2668539325843,316.75,465.2668539325843,330.75,467.4719101123596,330.75C469.67696629213486,330.75,469.67696629213486,323.75,471.88202247191015,323.75C474.08707865168543,323.75,474.08707865168543,313.25,476.2921348314607,313.25C478.497191011236,313.25,478.497191011236,322,480.7022471910113,322C482.9073033707865,322,482.9073033707865,323.75,485.11235955056173,323.75C487.3174157303371,323.75,487.3174157303371,315,489.52247191011236,315C491.72752808988764,315,491.72752808988764,313.25,493.9325842696629,313.25C496.1376404494382,313.25,496.1376404494382,315,498.3426966292135,315C500.5477528089888,315,500.5477528089888,315,502.75280898876406,315C504.95786516853934,315,504.95786516853934,313.25,507.1629213483146,313.25C509.3679775280899,313.25,509.3679775280899,315,511.5730337078652,315C513.7780898876405,315,513.7780898876405,318.5,515.9831460674158,318.5C518.1882022471909,318.5,518.1882022471909,308,520.3932584269662,308C522.5983146067415,308,522.5983146067415,313.25,524.8033707865168,313.25C527.0084269662921,313.25,527.0084269662921,306.25,529.2134831460673,306.25C531.4185393258426,306.25,531.4185393258426,316.75,533.623595505618,316.75C535.8286516853933,316.75,535.8286516853933,301,538.0337078651686,301C540.2387640449439,301,540.2387640449439,306.25,542.4438202247192,306.25C544.6488764044944,306.25,544.6488764044944,306.25,546.8539325842697,306.25C549.058988764045,306.25,549.058988764045,308,551.2640449438203,308C553.4691011235955,308,553.4691011235955,304.5,555.6741573033707,304.5C557.879213483146,304.5,557.879213483146,299.25,560.0842696629213,299.25C562.2893258426966,299.25,562.2893258426966,304.5,564.4943820224719,304.5C566.6994382022472,304.5,566.6994382022472,306.25,568.9044943820224,306.25C571.1095505617977,306.25,571.1095505617977,301,573.314606741573,301C575.5196629213483,301,575.5196629213483,301,577.7247191011236,301C579.9297752808989,301,579.9297752808989,297.5,582.1348314606741,297.5C584.3398876404494,297.5,584.3398876404494,294,586.5449438202247,294C588.75,294,588.75,294,590.9550561797753,294C593.1601123595506,294,593.1601123595506,299.25,595.3651685393259,299.25C597.5702247191011,299.25,597.5702247191011,297.5,599.7752808988764,297.5C601.9803370786517,297.5,601.9803370786517,295.75,604.185393258427,295.75C606.3904494382023,295.75,606.3904494382023,294,608.5955056179776,294C610.8005617977528,294,610.8005617977528,292.25,613.0056179775281,292.25C615.2106741573034,292.25,615.2106741573034,292.25,617.4157303370787,292.25C619.620786516854,292.25,619.620786516854,299.25,621.8258426966293,299.25C624.0308988764045,299.25,624.0308988764045,295.75,626.2359550561797,295.75C628.441011235955,295.75,628.441011235955,297.5,630.6460674157303,297.5C632.8511235955056,297.5,632.8511235955056,297.5,635.0561797752808,297.5C637.2612359550561,297.5,637.2612359550561,299.25,639.4662921348314,299.25C641.6713483146067,299.25,641.6713483146067,295.75,643.876404494382,295.75C646.0814606741574,295.75,646.0814606741574,301,648.2865168539327,301C650.4915730337079,301,650.4915730337079,301,652.6966292134832,301C654.9016853932585,301,654.9016853932585,301,657.1067415730338,301C659.3117977528091,301,659.3117977528091,302.75,661.5168539325842,302.75C663.7219101123595,302.75,663.7219101123595,301,665.9269662921348,301C668.1320224719101,301,668.1320224719101,302.75,670.3370786516854,302.75C672.5421348314607,302.75,672.5421348314607,299.25,674.7471910112359,299.25C676.9522471910112,299.25,676.9522471910112,304.5,679.1573033707865,304.5C681.3623595505618,304.5,681.3623595505618,302.75,683.5674157303371,302.75C685.7724719101124,302.75,685.7724719101124,304.5,687.9775280898876,304.5C690.1825842696629,304.5,690.1825842696629,299.25,692.3876404494382,299.25C694.5926966292135,299.25,694.5926966292135,301,696.7977528089888,301C699.0028089887641,301,699.0028089887641,299.25,701.2078651685393,299.25C703.4129213483146,299.25,703.4129213483146,299.25,705.6179775280899,299.25C707.8230337078652,299.25,707.8230337078652,301,710.0280898876405,301C712.2331460674158,301,712.2331460674158,297.5,714.438202247191,297.5C716.6432584269663,297.5,716.6432584269663,299.25,718.8483146067416,299.25C721.0533707865169,299.25,721.0533707865169,299.25,723.2584269662922,299.25C725.4634831460675,299.25,725.4634831460675,302.75,727.6685393258427,302.75C729.8735955056179,302.75,729.8735955056179,302.75,732.0786516853932,302.75C734.2837078651685,302.75,734.2837078651685,306.25,736.4887640449438,306.25C738.693820224719,306.25,738.693820224719,301,740.8988764044943,301C743.1039325842696,301,743.1039325842696,299.25,745.3089887640449,299.25C747.5140449438202,299.25,747.5140449438202,302.75,749.7191011235955,302.75C751.9241573033707,302.75,751.9241573033707,299.25,754.129213483146,299.25C756.3342696629213,299.25,756.3342696629213,301,758.5393258426966,301C760.7443820224719,301,760.7443820224719,299.25,762.9494382022473,299.25C765.1544943820224,299.25,765.1544943820224,299.25,767.3595505617977,299.25C769.564606741573,299.25,769.564606741573,302.75,771.7696629213483,302.75C773.9747191011236,302.75,773.9747191011236,302.75,776.1797752808989,302.75C778.3848314606741,302.75,778.3848314606741,301,780.5898876404494,301C782.7949438202247,301,782.7949438202247,301,785,301L785,329C782.7949438202247,329,782.7949438202247,329,780.5898876404494,329C778.3848314606741,329,778.3848314606741,330.75,776.1797752808989,330.75C773.9747191011236,330.75,773.9747191011236,330.75,771.7696629213483,330.75C769.564606741573,330.75,769.564606741573,330.75,767.3595505617977,330.75C765.1544943820224,330.75,765.1544943820224,334.25,762.9494382022473,334.25C760.7443820224719,334.25,760.7443820224719,332.5,758.5393258426966,332.5C756.3342696629213,332.5,756.3342696629213,330.75,754.129213483146,330.75C751.9241573033707,330.75,751.9241573033707,334.25,749.7191011235955,334.25C747.5140449438202,334.25,747.5140449438202,334.25,745.3089887640449,334.25C743.1039325842696,334.25,743.1039325842696,332.5,740.8988764044943,332.5C738.693820224719,332.5,738.693820224719,337.75,736.4887640449438,337.75C734.2837078651685,337.75,734.2837078651685,334.25,732.0786516853932,334.25C729.8735955056179,334.25,729.8735955056179,334.25,727.6685393258427,334.25C725.4634831460675,334.25,725.4634831460675,330.75,723.2584269662922,330.75C721.0533707865169,330.75,721.0533707865169,334.25,718.8483146067416,334.25C716.6432584269663,334.25,716.6432584269663,332.5,714.438202247191,332.5C712.2331460674158,332.5,712.2331460674158,332.5,710.0280898876405,332.5C707.8230337078652,332.5,707.8230337078652,334.25,705.6179775280899,334.25C703.4129213483146,334.25,703.4129213483146,334.25,701.2078651685393,334.25C699.0028089887641,334.25,699.0028089887641,336,696.7977528089888,336C694.5926966292135,336,694.5926966292135,337.75,692.3876404494382,337.75C690.1825842696629,337.75,690.1825842696629,339.5,687.9775280898876,339.5C685.7724719101124,339.5,685.7724719101124,341.25,683.5674157303371,341.25C681.3623595505618,341.25,681.3623595505618,343,679.1573033707865,343C676.9522471910112,343,676.9522471910112,337.75,674.7471910112359,337.75C672.5421348314607,337.75,672.5421348314607,341.25,670.3370786516854,341.25C668.1320224719101,341.25,668.1320224719101,339.5,665.9269662921348,339.5C663.7219101123595,339.5,663.7219101123595,341.25,661.5168539325842,341.25C659.3117977528091,341.25,659.3117977528091,343,657.1067415730338,343C654.9016853932585,343,654.9016853932585,343,652.6966292134832,343C650.4915730337079,343,650.4915730337079,339.5,648.2865168539327,339.5C646.0814606741574,339.5,646.0814606741574,330.75,643.876404494382,330.75C641.6713483146067,330.75,641.6713483146067,337.75,639.4662921348314,337.75C637.2612359550561,337.75,637.2612359550561,336,635.0561797752808,336C632.8511235955056,336,632.8511235955056,332.5,630.6460674157303,332.5C628.441011235955,332.5,628.441011235955,330.75,626.2359550561797,330.75C624.0308988764045,330.75,624.0308988764045,330.75,621.8258426966293,330.75C619.620786516854,330.75,619.620786516854,330.75,617.4157303370787,330.75C615.2106741573034,330.75,615.2106741573034,330.75,613.0056179775281,330.75C610.8005617977528,330.75,610.8005617977528,329,608.5955056179776,329C606.3904494382023,329,606.3904494382023,330.75,604.185393258427,330.75C601.9803370786517,330.75,601.9803370786517,329,599.7752808988764,329C597.5702247191011,329,597.5702247191011,334.25,595.3651685393259,334.25C593.1601123595506,334.25,593.1601123595506,336,590.9550561797753,336C588.75,336,588.75,325.5,586.5449438202247,325.5C584.3398876404494,325.5,584.3398876404494,336,582.1348314606741,336C579.9297752808989,336,579.9297752808989,329,577.7247191011236,329C575.5196629213483,329,575.5196629213483,339.5,573.314606741573,339.5C571.1095505617977,339.5,571.1095505617977,337.75,568.9044943820224,337.75C566.6994382022472,337.75,566.6994382022472,339.5,564.4943820224719,339.5C562.2893258426966,339.5,562.2893258426966,348.25,560.0842696629213,348.25C557.879213483146,348.25,557.879213483146,346.5,555.6741573033707,346.5C553.4691011235955,346.5,553.4691011235955,357,551.2640449438203,357C549.058988764045,357,549.058988764045,337.75,546.8539325842697,337.75C544.6488764044944,337.75,544.6488764044944,348.25,542.4438202247192,348.25C540.2387640449439,348.25,540.2387640449439,350,538.0337078651686,350C535.8286516853933,350,535.8286516853933,358.75,533.623595505618,358.75C531.4185393258426,358.75,531.4185393258426,348.25,529.2134831460673,348.25C527.0084269662921,348.25,527.0084269662921,351.75,524.8033707865168,351.75C522.5983146067415,351.75,522.5983146067415,343,520.3932584269662,343C518.1882022471909,343,518.1882022471909,360.5,515.9831460674158,360.5C513.7780898876405,360.5,513.7780898876405,357,511.5730337078652,357C509.3679775280899,357,509.3679775280899,362.25,507.1629213483146,362.25C504.95786516853934,362.25,504.95786516853934,367.5,502.75280898876406,367.5C500.5477528089888,367.5,500.5477528089888,371,498.3426966292135,371C496.1376404494382,371,496.1376404494382,369.25,493.9325842696629,369.25C491.72752808988764,369.25,491.72752808988764,374.5,489.52247191011236,374.5C487.3174157303371,374.5,487.3174157303371,372.75,485.11235955056173,372.75C482.9073033707865,372.75,482.9073033707865,378,480.7022471910113,378C478.497191011236,378,478.497191011236,369.25,476.2921348314607,369.25C474.08707865168543,369.25,474.08707865168543,379.75,471.88202247191015,379.75C469.67696629213486,379.75,469.67696629213486,386.75,467.4719101123596,386.75C465.2668539325843,386.75,465.2668539325843,369.25,463.061797752809,369.25C460.8567415730337,369.25,460.8567415730337,364,458.6516853932584,364C456.4466292134831,364,456.4466292134831,369.25,454.2415730337078,369.25C452.03651685393254,369.25,452.03651685393254,365.75,449.83146067415726,365.75C447.62640449438203,365.75,447.62640449438203,365.75,445.4213483146068,365.75C443.2162921348315,365.75,443.2162921348315,360.5,441.01123595505624,360.5C438.80617977528095,360.5,438.80617977528095,364,436.6011235955056,364C434.39606741573033,364,434.39606741573033,367.5,432.19101123595505,367.5C429.98595505617976,367.5,429.98595505617976,369.25,427.7808988764045,369.25C425.5758426966292,369.25,425.5758426966292,362.25,423.3707865168539,362.25C421.1657303370786,362.25,421.1657303370786,357,418.96067415730334,357C416.75561797752806,357,416.75561797752806,367.5,414.5505617977528,367.5C412.34550561797755,367.5,412.34550561797755,372.75,410.14044943820227,372.75C407.935393258427,372.75,407.935393258427,386.75,405.7303370786517,386.75C403.5252808988764,386.75,403.5252808988764,395.5,401.32022471910113,395.5C399.11516853932585,395.5,399.11516853932585,388.5,396.91011235955057,388.5C394.7050561797753,388.5,394.7050561797753,390.25,392.5,390.25C390.2949438202247,390.25,390.2949438202247,411.25,388.08988764044943,411.25C385.88483146067415,411.25,385.88483146067415,409.5,383.67977528089887,409.5C381.4747191011236,409.5,381.4747191011236,434,379.2696629213483,434C377.064606741573,434,377.064606741573,420,374.85955056179773,420C372.65449438202245,420,372.65449438202245,425.25,370.44943820224717,425.25C368.2443820224719,425.25,368.2443820224719,448,366.0393258426966,448C363.8342696629213,448,363.8342696629213,442.75,361.6292134831461,442.75C359.4241573033708,442.75,359.4241573033708,280.75,357.2191011235955,280.75C355.01404494382024,280.75,355.01404494382024,284.25,352.80898876404495,284.25C350.60393258426967,284.25,350.60393258426967,528.5,348.3988764044944,528.5C346.1938202247191,528.5,346.1938202247191,418.25,343.9887640449438,418.25C341.78370786516854,418.25,341.78370786516854,435.75,339.57865168539325,435.75C337.37359550561797,435.75,337.37359550561797,498.75,335.1685393258427,498.75C332.9634831460674,498.75,332.9634831460674,279,330.7584269662921,279C328.5533707865169,279,328.5533707865169,407.75,326.3483146067416,407.75C324.1432584269663,407.75,324.1432584269663,385,321.938202247191,385C319.7331460674157,385,319.7331460674157,280.75,317.5280898876404,280.75C315.32303370786514,280.75,315.32303370786514,279,313.11797752808985,279C310.9129213483146,279,310.9129213483146,320.25,308.70786516853934,320.25C306.50280898876406,320.25,306.50280898876406,316.75,304.2977528089888,316.75C302.0926966292135,316.75,302.0926966292135,315,299.8876404494382,315C297.6825842696629,315,297.6825842696629,311.5,295.47752808988764,311.5C293.27247191011236,311.5,293.27247191011236,309.75,291.0674157303371,309.75C288.8623595505618,309.75,288.8623595505618,309.75,286.6573033707865,309.75C284.4522471910112,309.75,284.4522471910112,311.5,282.24719101123594,311.5C280.04213483146066,311.5,280.04213483146066,311.5,277.8370786516854,311.5C275.6320224719101,311.5,275.6320224719101,306.25,273.42696629213486,306.25C271.2219101123596,306.25,271.2219101123596,306.25,269.0168539325843,306.25C266.81179775280896,306.25,266.81179775280896,306.25,264.6067415730337,306.25C262.4016853932584,306.25,262.4016853932584,304.5,260.1966292134831,304.5C257.9915730337078,304.5,257.9915730337078,304.5,255.7865168539326,304.5C253.5814606741573,304.5,253.5814606741573,301,251.37640449438203,301C249.17134831460675,301,249.17134831460675,304.5,246.96629213483146,304.5C244.76123595505618,304.5,244.76123595505618,301,242.55617977528087,301C240.3511235955056,301,240.3511235955056,297.5,238.14606741573036,297.5C235.94101123595507,297.5,235.94101123595507,294,233.7359550561798,294C231.53089887640448,294,231.53089887640448,297.5,229.3258426966292,297.5C227.1207865168539,297.5,227.1207865168539,297.5,224.91573033707863,297.5C222.71067415730337,297.5,222.71067415730337,297.5,220.50561797752812,297.5C218.30056179775283,297.5,218.30056179775283,299.25,216.09550561797752,299.25C213.89044943820224,299.25,213.89044943820224,297.5,211.68539325842696,297.5C209.48033707865167,297.5,209.48033707865167,297.5,207.2752808988764,297.5C205.07022471910113,297.5,205.07022471910113,299.25,202.86516853932585,299.25C200.66011235955057,299.25,200.66011235955057,297.5,198.45505617977528,297.5C196.25,297.5,196.25,297.5,194.04494382022472,297.5C191.83988764044943,297.5,191.83988764044943,297.5,189.63483146067415,297.5C187.42977528089887,297.5,187.42977528089887,295.75,185.22471910112358,295.75C183.0196629213483,295.75,183.0196629213483,297.5,180.81460674157304,297.5C178.60955056179776,297.5,178.60955056179776,297.5,176.40449438202248,297.5C174.1994382022472,297.5,174.1994382022472,294,171.9943820224719,294C169.78932584269663,294,169.78932584269663,294,167.58426966292134,294C165.3792134831461,294,165.3792134831461,294,163.1741573033708,294C160.96910112359552,294,160.96910112359552,295.75,158.7640449438202,295.75C156.55898876404495,295.75,156.55898876404495,297.5,154.35393258426967,297.5C152.1488764044944,297.5,152.1488764044944,294,149.9438202247191,294C147.73876404494382,294,147.73876404494382,295.75,145.53370786516854,295.75C143.32865168539325,295.75,143.32865168539325,297.5,141.12359550561797,297.5C138.9185393258427,297.5,138.9185393258427,297.5,136.71348314606743,297.5C134.50842696629212,297.5,134.50842696629212,297.5,132.30337078651684,297.5C130.09831460674155,297.5,130.09831460674155,297.5,127.8932584269663,297.5C125.68820224719101,297.5,125.68820224719101,297.5,123.48314606741573,297.5C121.27808988764045,297.5,121.27808988764045,297.5,119.07303370786518,297.5C116.86797752808988,297.5,116.86797752808988,295.75,114.6629213483146,295.75C112.45786516853933,295.75,112.45786516853933,297.5,110.25280898876406,297.5C108.04775280898878,297.5,108.04775280898878,297.5,105.84269662921348,297.5C103.63764044943821,297.5,103.63764044943821,299.25,101.43258426966293,299.25C99.22752808988764,299.25,99.22752808988764,302.75,97.02247191011236,302.75C94.81741573033707,302.75,94.81741573033707,301,92.61235955056179,301C90.40730337078651,301,90.40730337078651,299.25,88.20224719101124,299.25C85.99719101123596,299.25,85.99719101123596,297.5,83.79213483146067,297.5C81.58707865168539,297.5,81.58707865168539,301,79.3820224719101,301C77.17696629213484,301,77.17696629213484,299.25,74.97191011235955,299.25C72.76685393258427,299.25,72.76685393258427,301,70.56179775280899,301C68.3567415730337,301,68.3567415730337,301,66.15168539325842,301C63.94662921348314,301,63.94662921348314,299.25,61.741573033707866,299.25C59.53651685393258,299.25,59.53651685393258,301,57.3314606741573,301C55.126404494382015,301,55.126404494382015,297.5,52.92134831460674,297.5C50.71629213483146,297.5,50.71629213483146,299.25,48.51123595505618,299.25C46.306179775280896,299.25,46.306179775280896,301,44.10112359550562,301C41.896067415730336,301,41.896067415730336,299.25,39.69101123595505,299.25C37.485955056179776,299.25,37.485955056179776,299.25,35.28089887640449,299.25C33.07584269662921,299.25,33.07584269662921,299.25,30.870786516853933,299.25C28.66573033707865,299.25,28.66573033707865,297.5,26.46067415730337,297.5C24.25561797752809,297.5,24.25561797752809,297.5,22.05056179775281,297.5C19.84550561797753,297.5,19.84550561797753,297.5,17.640449438202246,297.5C15.435393258426966,297.5,15.435393258426966,301,13.230337078651685,301C11.025280898876403,301,11.025280898876403,297.5,8.820224719101123,297.5C6.615168539325842,297.5,6.615168539325842,299.25,4.410112359550562,299.25C2.205056179775281,299.25,2.205056179775281,299.25,0,299.25Z"><title>Sergio Massa</title></path></g><g id="xAxis" transform="translate(0,560)" fill="none" font-size="10" font-family="sans-serif" text-anchor="middle"><path class="domain" stroke="currentColor" d="M0,0H785"/><g class="tick" opacity="1" transform="translate(15.435393258426966,0)"><line stroke="currentColor" y2="6"/><text fill="currentColor" y="9" dy="0.71em">12 PM</text></g><g class="tick" opacity="1" transform="translate(114.6629213483146,0)"><line stroke="currentColor" y2="6"/><text fill="currentColor" y="9" dy="0.71em">03 PM</text></g><g class="tick" opacity="1" transform="translate(213.89044943820224,0)"><line stroke="currentColor" y2="6"/><text fill="currentColor" y="9" dy="0.71em">06 PM</text></g><g class="tick" opacity="1" transform="translate(313.11797752808985,0)"><line stroke="currentColor" y2="6"/><text fill="currentColor" y="9" dy="0.71em">09 PM</text></g><g class="tick" opacity="1" transform="translate(412.34550561797755,0)"><line stroke="currentColor" y2="6"/><text fill="currentColor" y="9" dy="0.71em">Mon 13</text></g><g class="tick" opacity="1" transform="translate(511.5730337078652,0)"><line stroke="currentColor" y2="6"/><text fill="currentColor" y="9" dy="0.71em">03 AM</text></g><g class="tick" opacity="1" transform="translate(610.8005617977527,0)"><line stroke="currentColor" y2="6"/><text fill="currentColor" y="9" dy="0.71em">06 AM</text></g><g class="tick" opacity="1" transform="translate(710.0280898876405,0)"><line stroke="currentColor" y2="6"/><text fill="currentColor" y="9" dy="0.71em">09 AM</text></g></g><text y="556" x="785" text-anchor="end" style="font-family: Arial, sans-serif; font-size: 12px; fill: rgb(123, 123, 123); font-weight: bold;">Time</text><text x="4" text-anchor="start" dominant-baseline="hanging" style="font-family: Arial, sans-serif; font-size: 12px; fill: rgb(123, 123, 123); font-weight: bold;">value</text><g id="labels"><text x="348.3988764044944" y="205.5" text-anchor="middle" alignment-baseline="middle" style="font-family: Arial, sans-serif; font-size: 10px; fill: black; font-weight: bold;">Javier Milei</text><text x="335.1685393258427" y="400.75" text-anchor="middle" alignment-baseline="middle" style="font-family: Arial, sans-serif; font-size: 10px; fill: black; font-weight: bold;">Sergio Massa</text></g></g><text x="4" y="4" style="font-family: Arial, sans-serif; font-size: 12px; fill: black; font-weight: bold; dominant-baseline: hanging;"/></g></g></svg>